<?xml version="1.0" standalone="no"?>
<!DOCTYPE svg PUBLIC "-//W3C//DTD SVG 1.1//EN" "http://www.w3.org/Graphics/SVG/1.1/DTD/svg11.dtd" >
<svg xmlns="http://www.w3.org/2000/svg">
<metadata>Generated by IcoMoon</metadata>
<defs>
<font id="icomoon" horiz-adv-x="1024">
<font-face units-per-em="1024" ascent="960" descent="-64" />
<missing-glyph horiz-adv-x="1024" />
<glyph unicode="&#x20;" horiz-adv-x="512" d="" />
<glyph unicode="&#xe900;" glyph-name="wtkm-icon-01" d="M142.222 846.222h739.556c47.128 0 85.333-38.205 85.333-85.333v0-56.889c-0.284-36.78-23.638-68.033-56.293-80.022l-0.596-0.191v-431.787c0-78.547-63.675-142.222-142.222-142.222v0h-512c-78.547 0-142.222 63.675-142.222 142.222v0 431.787c-33.251 12.181-56.605 43.434-56.889 80.179v56.923c0 47.128 38.205 85.333 85.333 85.333v0zM455.111 789.333v-113.778h113.778v113.778zM568.889 618.667h-113.778v-85.333c0-15.709 12.735-28.444 28.444-28.444v0h56.889c15.709 0 28.444 12.735 28.444 28.444v0zM910.222 760.889c0 15.709-12.735 28.444-28.444 28.444v0h-256v-113.778h256c15.709 0 28.444 12.735 28.444 28.444v0zM170.667 192c0-47.128 38.205-85.333 85.333-85.333v0h512c47.128 0 85.333 38.205 85.333 85.333v0 426.667h-227.556v-85.333c0-47.128-38.205-85.333-85.333-85.333v0h-56.889c-47.128 0-85.333 38.205-85.333 85.333v0 85.333h-227.556zM113.778 704c0-15.709 12.735-28.444 28.444-28.444v0h256v113.778h-256c-15.709 0-28.444-12.735-28.444-28.444v0zM768 277.333h-113.778c-15.709 0-28.444 12.735-28.444 28.444s12.735 28.444 28.444 28.444v0h113.778c15.709 0 28.444-12.735 28.444-28.444s-12.735-28.444-28.444-28.444v0zM483.556 220.444h284.444c15.709 0 28.444-12.735 28.444-28.444s-12.735-28.444-28.444-28.444v0h-284.444c-15.709 0-28.444 12.735-28.444 28.444s12.735 28.444 28.444 28.444v0z" />
<glyph unicode="&#xe901;" glyph-name="wtkm-icon-02" d="M199.111 874.667h625.778c78.547 0 142.222-63.675 142.222-142.222v0-568.889c0-78.547-63.675-142.222-142.222-142.222v0h-625.778c-78.547 0-142.222 63.675-142.222 142.222v0 568.889c0 78.547 63.675 142.222 142.222 142.222v0zM113.778 732.444v-455.111c0-47.128 38.205-85.333 85.333-85.333v0h85.333v113.778h-28.444c-15.709 0-28.444 12.735-28.444 28.444s12.735 28.444 28.444 28.444v0h28.444v113.778h-28.444c-15.709 0-28.444 12.735-28.444 28.444s12.735 28.444 28.444 28.444v0h28.444v113.778h-28.444c-15.709 0-28.444 12.735-28.444 28.444s12.735 28.444 28.444 28.444v0h28.444v113.778h-85.333c-47.128 0-85.333-38.205-85.333-85.333v0zM910.222 732.444c0 47.128-38.205 85.333-85.333 85.333v0h-483.556v-625.778h483.556c47.128 0 85.333 38.205 85.333 85.333v0zM199.111 78.222h625.778c47.128 0 85.333 38.205 85.333 85.333v0 0c-23.467-17.85-53.103-28.705-85.262-29.013l-0.072-0.001h-625.778c-32.23 0.308-61.867 11.163-85.688 29.272l0.355-0.259c0-47.128 38.205-85.333 85.333-85.333v0zM711.111 476.444c15.709 0 28.444-12.735 28.444-28.444s-12.735-28.444-28.444-28.444v0h-85.333v-85.333c0-15.709-12.735-28.444-28.444-28.444s-28.444 12.735-28.444 28.444v0 85.333h-85.333c-15.709 0-28.444 12.735-28.444 28.444s12.735 28.444 28.444 28.444v0h85.333v56.889h-85.333c-15.709 0-28.444 12.735-28.444 28.444s12.735 28.444 28.444 28.444v0h44.942l-64.853 65.422c-5.096 5.096-8.247 12.135-8.247 19.911 0 15.552 12.607 28.159 28.159 28.159 7.776 0 14.815-3.152 19.911-8.247v0l93.867-93.298 93.867 93.298c5.096 5.096 12.135 8.247 19.911 8.247 15.552 0 28.159-12.607 28.159-28.159 0-7.776-3.152-14.815-8.247-19.911v0l-64.853-65.422h44.942c15.709 0 28.444-12.735 28.444-28.444s-12.735-28.444-28.444-28.444v0h-85.333v-56.889z" />
<glyph unicode="&#xe902;" glyph-name="wtkm-icon-03" d="M256 860.444h28.444v28.444c0 15.709 12.735 28.444 28.444 28.444s28.444-12.735 28.444-28.444v0-28.444h341.333v28.444c0 15.709 12.735 28.444 28.444 28.444s28.444-12.735 28.444-28.444v0-28.444h28.444c78.547 0 142.222-63.675 142.222-142.222v0-597.333c0-78.547-63.675-142.222-142.222-142.222v0h-512c-78.547 0-142.222 63.675-142.222 142.222v0 597.333c0 78.547 63.675 142.222 142.222 142.222v0zM170.667 120.889c0-47.128 38.205-85.333 85.333-85.333v0h512c47.128 0 85.333 38.205 85.333 85.333v0 597.333c0 47.128-38.205 85.333-85.333 85.333v0h-28.444v-28.444c0-15.709-12.735-28.444-28.444-28.444s-28.444 12.735-28.444 28.444v0 28.444h-341.333v-28.444c0-15.709-12.735-28.444-28.444-28.444s-28.444 12.735-28.444 28.444v0 28.444h-28.444c-47.128 0-85.333-38.205-85.333-85.333v0zM312.889 661.333h398.222c15.709 0 28.444-12.735 28.444-28.444s-12.735-28.444-28.444-28.444v0h-398.222c-15.709 0-28.444 12.735-28.444 28.444s12.735 28.444 28.444 28.444v0zM312.889 547.556h398.222c15.709 0 28.444-12.735 28.444-28.444s-12.735-28.444-28.444-28.444v0h-398.222c-15.709 0-28.444 12.735-28.444 28.444s12.735 28.444 28.444 28.444v0zM312.889 433.778h398.222c15.709 0 28.444-12.735 28.444-28.444s-12.735-28.444-28.444-28.444v0h-398.222c-15.709 0-28.444 12.735-28.444 28.444s12.735 28.444 28.444 28.444v0zM312.889 320h398.222c15.709 0 28.444-12.735 28.444-28.444s-12.735-28.444-28.444-28.444v0h-398.222c-15.709 0-28.444 12.735-28.444 28.444s12.735 28.444 28.444 28.444v0zM312.889 206.222h170.667c15.709 0 28.444-12.735 28.444-28.444s-12.735-28.444-28.444-28.444v0h-170.667c-15.709 0-28.444 12.735-28.444 28.444s12.735 28.444 28.444 28.444v0z" />
<glyph unicode="&#xe903;" glyph-name="wtkm-icon-04" d="M284.444 860.444h28.444v28.444c0 15.709 12.735 28.444 28.444 28.444s28.444-12.735 28.444-28.444v0-28.444h284.444v28.444c0 15.709 12.735 28.444 28.444 28.444s28.444-12.735 28.444-28.444v0-28.444h28.444c78.547 0 142.222-63.675 142.222-142.222v0-597.333c0-78.547-63.675-142.222-142.222-142.222v0h-455.111c-78.547 0-142.222 63.675-142.222 142.222v0 597.333c0 78.547 63.675 142.222 142.222 142.222v0zM824.889 718.222c0 47.128-38.205 85.333-85.333 85.333v0h-28.444v-28.444c0-15.709-12.735-28.444-28.444-28.444s-28.444 12.735-28.444 28.444v0 28.444h-284.444v-28.444c0-15.709-12.735-28.444-28.444-28.444s-28.444 12.735-28.444 28.444v0 28.444h-28.444c-47.128 0-85.333-38.205-85.333-85.333v0-483.556c0-47.128 38.205-85.333 85.333-85.333v0h455.111c47.128 0 85.333 38.205 85.333 85.333v0zM284.444 35.556h455.111c47.128 0 85.333 38.205 85.333 85.333v0 0c-23.467-17.85-53.103-28.705-85.262-29.013l-0.072-0.001h-455.111c-32.23 0.308-61.867 11.163-85.688 29.272l0.355-0.259c0-47.128 38.205-85.333 85.333-85.333v0zM625.778 405.333c15.709 0 28.444-12.735 28.444-28.444s-12.735-28.444-28.444-28.444v0h-85.333v-85.333c0-15.709-12.735-28.444-28.444-28.444s-28.444 12.735-28.444 28.444v0 85.333h-85.333c-15.709 0-28.444 12.735-28.444 28.444s12.735 28.444 28.444 28.444v0h85.333v56.889h-85.333c-15.709 0-28.444 12.735-28.444 28.444s12.735 28.444 28.444 28.444v0h44.942l-64.853 65.422c-5.096 5.096-8.247 12.135-8.247 19.911 0 15.552 12.607 28.159 28.159 28.159 7.776 0 14.815-3.152 19.911-8.247v0l93.867-93.298 93.867 93.298c5.096 5.096 12.135 8.247 19.911 8.247 15.552 0 28.159-12.607 28.159-28.159 0-7.776-3.152-14.815-8.247-19.911v0l-64.853-65.422h44.942c15.709 0 28.444-12.735 28.444-28.444s-12.735-28.444-28.444-28.444v0h-85.333v-56.889z" />
<glyph unicode="&#xe904;" glyph-name="wtkm-icon-05" d="M113.778 255.716l113.778 455.111c3.385 12.543 14.66 21.62 28.056 21.62 0.137 0 0.273-0.001 0.409-0.003h85.312v28.444c0 78.547 63.675 142.222 142.222 142.222v0h56.889c78.547 0 142.222-63.675 142.222-142.222v0-28.444h85.333c13.321-0.085 24.505-9.134 27.829-21.415l0.047-0.203 113.778-455.111c0.134-1.025 0.21-2.21 0.21-3.413s-0.076-2.388-0.224-3.551l0.014 0.138v-113.778c0 0 0-0.001 0-0.001 0-78.347-63.351-141.898-141.622-142.221h-512.031c-78.547 0-142.222 63.675-142.222 142.222v0 113.778c-0.134 1.025-0.21 2.21-0.21 3.413s0.076 2.388 0.224 3.551l-0.014-0.138zM625.778 760.889c0 47.128-38.205 85.333-85.333 85.333v0h-56.889c-47.128 0-85.333-38.205-85.333-85.333v0-28.444h227.556zM170.667 135.111c0-47.128 38.205-85.333 85.333-85.333v0h512c47.128 0 85.333 38.205 85.333 85.333v0 110.364l-107.52 430.080h-63.147v-85.333c0-15.709-12.735-28.444-28.444-28.444s-28.444 12.735-28.444 28.444v0 85.333h-227.556v-85.333c0-15.709-12.735-28.444-28.444-28.444s-28.444 12.735-28.444 28.444v0 85.333h-63.147l-107.52-430.080zM796.444 248.889c0-15.709-12.735-28.444-28.444-28.444v0h-512c-15.709 0-28.444 12.735-28.444 28.444s12.735 28.444 28.444 28.444v0h512c15.709 0 28.444-12.735 28.444-28.444v0z" />
<glyph unicode="&#xe905;" glyph-name="wtkm-icon-06" d="M853.333 641.422h-19.342v175.787c-0.313 34.55-28.076 62.512-62.518 63.146l-0.060 0.001h-72.818c-7.534-0.020-14.769-1.268-21.526-3.553l0.477 0.14-355.556-129.138c-20.042-8.81-34.437-27.171-37.509-49.161l-0.038-0.332h-64.853c-68.562-0.323-124.018-55.978-124.018-124.585 0 0 0-0.001 0-0.001v0-92.729c0.321-68.363 55.654-123.696 123.987-124.018h64.884l47.787-284.444c4.886-32.365 32.506-56.889 65.854-56.889 0.048 0 0.097 0 0.145 0h35.833c0.122-0.001 0.266-0.001 0.411-0.001 36.76 0 66.56 29.8 66.56 66.56 0 4.021-0.356 7.958-1.040 11.782l0.060-0.403-30.72 183.751 207.644-75.093c6.198-2.523 13.388-3.986 20.921-3.986 0.245 0 0.49 0.002 0.734 0.005h72.781c0.001 0 0.002 0 0.003 0 34.989 0 63.391 28.203 63.713 63.116v152.493h18.204c40.845 0 73.956 33.111 73.956 73.956v0 79.644c0 40.845-33.111 73.956-73.956 73.956v0zM152.462 480.996v92.729c-0.002 0.169-0.002 0.369-0.002 0.569 0 37.074 30.055 67.129 67.129 67.129 0.001 0 0.002 0 0.002 0h60.871v-227.556h-60.871c-37.074 0-67.129 30.055-67.129 67.129v0zM443.733 82.773c0.542-1.17 0.858-2.539 0.858-3.982s-0.316-2.812-0.883-4.042l0.025 0.060c-1.831-2.042-4.455-3.342-7.383-3.413h-38.128c-0.191-0.014-0.413-0.022-0.637-0.022-4.634 0-8.459 3.463-9.029 7.942l-0.005 0.045-40.391 240.071 56.889-21.618zM871.538 486.684c0.006-0.173 0.010-0.375 0.010-0.579 0-9.111-7.386-16.498-16.498-16.498-0.204 0-0.406 0.004-0.608 0.011l0.029-0.001h-19.342v113.778h18.204c9.426 0 17.067-7.641 17.067-17.067v0zM337.351 536.178v146.204c0.060 2.581 1.674 4.771 3.94 5.674l0.042 0.015 116.622 44.373 238.364 85.902h74.524c0.171 0.017 0.369 0.026 0.569 0.026 3.456 0 6.258-2.802 6.258-6.258 0-0.009 0-0.018 0-0.027v0.001-550.116c0-0.008 0-0.017 0-0.026 0-3.456-2.802-6.258-6.258-6.258-0.2 0-0.398 0.009-0.594 0.028l0.025-0.002h-73.956l-238.364 85.333-117.191 42.667c-2.422 1.084-4.079 3.473-4.079 6.249 0 0.405 0.035 0.802 0.103 1.187l-0.006-0.041z" />
<glyph unicode="&#xe906;" glyph-name="wtkm-icon-07" d="M843.662 137.387c76.463 81.226 123.449 190.951 123.449 311.651 0 251.351-203.76 455.111-455.111 455.111s-455.111-203.76-455.111-455.111c0-120.7 46.986-230.425 123.665-311.883l-0.216 0.232 4.551-5.12c82.852-85.57 198.779-138.687 327.111-138.687s244.258 53.117 326.993 138.564l0.118 0.123zM512 846.222c219.932 0 398.222-178.29 398.222-398.222v0c0-0.114 0-0.248 0-0.383 0-88.601-29.27-170.366-78.668-236.153l0.73 1.015-17.067 51.769c-15.998 46.16-51.688 81.851-96.751 97.517l-1.098 0.332-80.782 29.013c28.545 30.432 46.080 71.489 46.080 116.642 0 94.257-76.41 170.667-170.667 170.667s-170.667-76.41-170.667-170.667c0-45.153 17.535-86.21 46.166-116.734l-0.086 0.092-80.782-26.738c-46.16-15.998-81.851-51.688-97.517-96.751l-0.332-1.098-17.067-51.769c-48.298 64.276-77.5 145.308-77.937 233.141v0.103c0 219.932 178.29 398.222 398.222 398.222v0zM398.222 504.889c0 62.838 50.94 113.778 113.778 113.778s113.778-50.94 113.778-113.778c0-62.838-50.94-113.778-113.778-113.778v0c-62.838 0-113.778 50.94-113.778 113.778v0zM234.951 163.556l27.876 83.627c10.117 29.266 32.743 51.892 61.314 61.799l0.695 0.21 113.778 36.978c2.864 0.803 5.343 2.176 7.416 4l-0.021-0.018c20.23-9.327 43.897-14.767 68.836-14.767s48.606 5.439 69.881 15.197l-1.046-0.43c2.053-1.806 4.532-3.179 7.263-3.95l0.132-0.032 110.933-36.978c29.266-10.117 51.892-32.743 61.799-61.314l0.21-0.695 25.031-83.627c-71.584-69.395-169.321-112.172-277.049-112.172s-205.465 42.777-277.151 112.271l0.102-0.099z" />
<glyph unicode="&#xe907;" glyph-name="wtkm-icon-08" d="M881.778 871.822h-739.556c-0.178 0.001-0.389 0.002-0.599 0.002-46.015 0-83.466-36.665-84.731-82.374l-0.003-0.117v-682.667c1.268-45.826 38.719-82.491 84.734-82.491 0.211 0 0.421 0.001 0.632 0.002h739.524c0.178-0.001 0.389-0.002 0.599-0.002 46.015 0 83.466 36.665 84.731 82.374l0.003 0.117v682.667c-1.268 45.826-38.719 82.491-84.734 82.491-0.211 0-0.421-0.001-0.632-0.002h0.032zM230.4 75.378h-88.178c-0.522-0.030-1.133-0.046-1.748-0.046-17.639 0-32.045 13.841-32.95 31.255l-0.003 0.081v682.667c0.909 17.494 15.315 31.335 32.954 31.335 0.615 0 1.226-0.017 1.833-0.050l-0.084 0.004h88.178zM916.48 106.667c-0.909-17.494-15.315-31.335-32.954-31.335-0.615 0-1.226 0.017-1.833 0.050l0.084-0.004h-597.333v745.244h597.333c0.522 0.030 1.133 0.046 1.748 0.046 17.639 0 32.045-13.841 32.95-31.255l0.003-0.081zM788.48 338.773c-11.946 34.22-38.806 60.52-72.582 71.455l-0.805 0.225-25.031 6.258c17.758 23.473 28.444 53.155 28.444 85.333 0 78.547-63.675 142.222-142.222 142.222s-142.222-63.675-142.222-142.222c0-32.178 10.686-61.86 28.704-85.691l-0.259 0.358-26.738-6.827c-33.54-11.637-59.474-37.571-70.869-70.313l-0.242-0.798-23.324-73.956c-1.020-2.779-1.609-5.988-1.609-9.334 0-12.31 7.979-22.756 19.048-26.449l0.197-0.057h9.102c1.014-0.126 2.188-0.197 3.379-0.197 11.988 0 22.278 7.271 26.701 17.643l0.072 0.19 24.462 73.956c5.377 15.848 17.094 28.308 32.051 34.563l0.376 0.139 65.991 17.067c16.708-7.724 36.237-12.314 56.817-12.515l0.072-0.001c20.646 0.11 40.191 4.71 57.745 12.873l-0.856-0.357 64.284-16.498c16.599-5.833 29.438-18.672 35.149-34.873l0.122-0.398 24.462-73.956c3.72-11.316 14.191-19.343 26.538-19.343 0.070 0 0.141 0 0.211 0.001h-0.011c1.368-0.285 2.941-0.448 4.551-0.448s3.183 0.163 4.701 0.474l-0.15-0.026c11.477 3.837 19.602 14.487 19.602 27.035 0 3.148-0.511 6.176-1.455 9.006l0.058-0.201zM492.089 502.044c0 47.128 38.205 85.333 85.333 85.333s85.333-38.205 85.333-85.333c0-47.128-38.205-85.333-85.333-85.333v0c-47.128 0-85.333 38.205-85.333 85.333v0z" />
<glyph unicode="&#xe908;" glyph-name="wtkm-icon-09" d="M889.173 846.222h-753.778c-43.358 0-78.507-35.149-78.507-78.507v0-640c0.322-43.113 35.347-77.938 78.505-77.938 0.001 0 0.001 0 0.002 0h753.778c42.915 0.32 77.618 35.023 77.938 77.907v640.031c0 0.001 0 0.001 0 0.002 0 43.158-34.825 78.182-77.907 78.504h-0.031zM135.396 789.333h753.778c11.692-0.317 21.049-9.871 21.049-21.61 0-0.003 0-0.005 0-0.008v0-391.964c-37.432-26.083-83.867-41.674-133.943-41.674-2.911 0-5.81 0.053-8.696 0.157l0.417-0.012c-64.646 11.592-122.11 35.694-172.197 69.82l1.531-0.984c-80.528 54.323-177.335 90.805-281.763 101.606l-2.681 0.225c-3.111 0.115-6.764 0.18-10.433 0.18-71.651 0-137.475-24.946-189.262-66.626l0.584 0.455v328.818c0 11.939 9.679 21.618 21.618 21.618v0zM889.173 106.667h-753.778c-0.002 0-0.005 0-0.007 0-11.739 0-21.293 9.357-21.61 21.020l-0.001 0.029v227.556c41.179 56.836 107.345 93.379 182.046 93.379 6.006 0 11.956-0.236 17.843-0.7l-0.778 0.049c97.555-11.372 185.46-45.046 260.952-95.769l-2.108 1.334c55.54-38.554 121.98-65.535 193.788-75.937l2.478-0.295c1.459-0.025 3.18-0.039 4.905-0.039 50.060 0 97.318 11.996 139.056 33.27l-1.739-0.804v-182.044c-0.308-11.499-9.55-20.741-21.020-21.048l-0.029-0.001zM711.111 448c78.547 0 142.222 63.675 142.222 142.222s-63.675 142.222-142.222 142.222c-78.547 0-142.222-63.675-142.222-142.222v0c0-78.547 63.675-142.222 142.222-142.222v0zM711.111 675.556c47.128 0 85.333-38.205 85.333-85.333s-38.205-85.333-85.333-85.333c-47.128 0-85.333 38.205-85.333 85.333v0c0 47.128 38.205 85.333 85.333 85.333v0z" />
<glyph unicode="&#xe909;" glyph-name="wtkm-icon-10" d="M954.596 529.351l-92.16 62.009c-26.627 18.388-43.852 48.74-43.852 83.116 0 6.619 0.639 13.088 1.858 19.35l-0.103-0.635 21.049 108.658c0.416 1.804 0.654 3.877 0.654 6.004 0 7.64-3.074 14.563-8.052 19.598l0.003-0.003c-5.243 5.208-12.468 8.426-20.444 8.426-1.823 0-3.606-0.168-5.335-0.49l0.179 0.028-109.227-21.049c-5.862-1.233-12.597-1.939-19.497-1.939-34.187 0-64.326 17.331-82.111 43.686l-0.223 0.351-62.009 91.591c-5.344 7.167-13.798 11.758-23.324 11.758s-17.98-4.591-23.27-11.682l-0.055-0.077-62.009-91.591c-18.008-26.706-48.147-44.037-82.334-44.037-6.9 0-13.636 0.706-20.138 2.050l0.641-0.111-109.227 21.049c-1.55 0.294-3.334 0.462-5.156 0.462-7.976 0-15.201-3.219-20.445-8.428l0.002 0.002c-4.976-5.033-8.050-11.955-8.050-19.596 0-2.128 0.238-4.2 0.69-6.191l-0.036 0.187 21.049-108.658c1.116-5.627 1.755-12.097 1.755-18.715 0-34.376-17.226-64.728-43.516-82.896l-0.336-0.22-92.16-62.009c-7.631-5.181-12.579-13.817-12.579-23.609s4.948-18.428 12.48-23.545l0.099-0.064 92.16-62.009c26.627-18.388 43.852-48.74 43.852-83.116 0-6.619-0.639-13.088-1.858-19.35l0.103 0.635-21.049-108.658c-0.451-1.858-0.71-3.991-0.71-6.185 0-7.594 3.1-14.463 8.103-19.413l0.002-0.002c5.243-5.208 12.468-8.426 20.444-8.426 1.823 0 3.606 0.168 5.335 0.49l-0.179-0.028 109.227 21.049c5.705 1.154 12.263 1.815 18.975 1.815 34.312 0 64.593-17.26 82.635-43.571l0.221-0.341 62.009-92.16c5.054-7.64 13.609-12.611 23.324-12.611s18.27 4.97 23.26 12.507l0.064 0.104 62.009 92.16c18.262 26.652 48.544 43.912 82.856 43.912 6.712 0 13.27-0.66 19.612-1.92l-0.637 0.106 109.227-21.049c1.55-0.294 3.334-0.462 5.156-0.462 7.976 0 15.201 3.219 20.445 8.428l-0.002-0.002c5.005 4.952 8.105 11.822 8.105 19.415 0 2.194-0.259 4.327-0.747 6.371l0.037-0.186-21.049 108.658c-1.116 5.627-1.755 12.097-1.755 18.715 0 34.376 17.226 64.728 43.516 82.896l0.336 0.22 92.16 62.009c7.631 5.181 12.579 13.817 12.579 23.609s-4.948 18.428-12.48 23.545l-0.099 0.064zM830.578 467.342c-41.799-28.638-68.868-76.127-68.868-129.937 0-10.585 1.047-20.925 3.044-30.922l-0.167 1.002 13.084-67.698-67.129 13.084c-9.074 1.869-19.503 2.939-30.181 2.939-53.748 0-101.165-27.104-129.329-68.39l-0.348-0.54-38.684-56.889-38.684 56.889c-28.395 41.776-75.698 68.858-129.326 68.858-0.934 0-1.866-0.008-2.796-0.025l0.14 0.002c-4.523 0.523-9.765 0.821-15.076 0.821s-10.552-0.298-15.708-0.879l0.633 0.058-67.129-13.084 13.084 67.698c1.694 8.659 2.664 18.616 2.664 28.8 0 52.746-26.009 99.418-65.901 127.889l-0.478 0.324-57.458 37.547 56.889 38.684c42.143 28.594 69.469 76.277 69.469 130.343 0 10.643-1.059 21.039-3.077 31.088l0.168-1.004-13.084 67.698 67.129-13.084c9.074-1.869 19.503-2.939 30.181-2.939 53.748 0 101.165 27.104 129.329 68.39l0.348 0.54 38.684 56.889 38.684-56.889c28.512-41.826 75.929-68.93 129.677-68.93 10.678 0 21.107 1.070 31.184 3.108l-1.003-0.169 67.129 13.084-13.084-67.698c-1.83-8.996-2.877-19.336-2.877-29.921 0-53.811 27.069-101.299 68.333-129.59l0.535-0.347 56.889-38.684zM597.333 618.667c-15.709 0-28.444-12.735-28.444-28.444v0-101.262l-122.311 122.311c-5.298 5.581-12.772 9.052-21.056 9.052-3.464 0-6.787-0.607-9.866-1.721l0.202 0.064c-10.459-4.36-17.678-14.501-17.678-26.328 0-0.544 0.015-1.085 0.045-1.622l-0.003 0.074v-170.667c0-15.709 12.735-28.444 28.444-28.444s28.444 12.735 28.444 28.444v0 102.4l122.311-122.311c4.896-5.257 11.858-8.535 19.585-8.535 0.115 0 0.229 0.001 0.343 0.002h-0.017c1.624-0.253 3.497-0.397 5.404-0.397s3.78 0.144 5.61 0.423l-0.205-0.026c10.478 4.351 17.713 14.502 17.713 26.343 0 0.74-0.028 1.473-0.084 2.198l0.006-0.096v170.667c-0.319 15.463-12.929 27.876-28.439 27.876-0.002 0-0.004 0-0.006 0v0z" />
<glyph unicode="&#xe90a;" glyph-name="wtkm-icon-11" d="M889.173 647.111h-92.729v35.84c0 43.044-34.894 77.938-77.938 77.938v0h-92.729v35.84c-0.32 42.915-35.023 77.618-77.907 77.938h-413.044c-42.915-0.32-77.618-35.023-77.938-77.907v-469.933c0.32-42.915 35.023-77.618 77.907-77.938h92.76v-35.84c0-43.044 34.894-77.938 77.938-77.938h92.729v-35.84c0-43.044 34.894-77.938 77.938-77.938h413.013c43.044 0 77.938 34.894 77.938 77.938v0 469.902c0 43.044-34.894 77.938-77.938 77.938v0zM113.778 326.827v469.902c0.308 11.499 9.55 20.741 21.020 21.048l0.029 0.001h413.013c11.499-0.308 20.741-9.55 21.048-21.020l0.001-0.029v-469.902c-0.308-11.499-9.55-20.741-21.020-21.048l-0.029-0.001h-413.013c-11.499 0.308-20.741 9.55-21.048 21.020l-0.001 0.029zM284.444 213.049v35.84h263.396c42.915 0.32 77.618 35.023 77.938 77.907v377.204h92.729c11.499-0.308 20.741-9.55 21.048-21.020l0.001-0.029v-469.902c-0.308-11.499-9.55-20.741-21.020-21.048l-0.029-0.001h-413.013c-11.499 0.308-20.741 9.55-21.048 21.020l-0.001 0.029zM910.222 99.271c-0.308-11.499-9.55-20.741-21.020-21.048l-0.029-0.001h-413.013c-11.499 0.308-20.741 9.55-21.048 21.020l-0.001 0.029v35.84h263.396c43.044 0 77.938 34.894 77.938 77.938v0 377.173h92.729c11.499-0.308 20.741-9.55 21.048-21.020l0.001-0.029zM469.333 525.369c-3.371 5.844-8.214 10.505-14.032 13.562l-0.19 0.091-38.116 22.756c23.434 20.933 38.116 51.239 38.116 84.974 0 62.838-50.94 113.778-113.778 113.778s-113.778-50.94-113.778-113.778c0-33.735 14.682-64.041 38.005-84.877l0.111-0.097-38.116-22.756c-5.103-3.431-9.165-8.040-11.856-13.452l-0.091-0.202-44.942-94.436c-1.871-3.688-2.967-8.041-2.967-12.65 0-12.708 8.333-23.469 19.833-27.117l0.201-0.055c1.71-0.381 3.674-0.599 5.689-0.599s3.979 0.218 5.87 0.632l-0.181-0.033c0.699-0.061 1.512-0.096 2.333-0.096 11.631 0 21.631 6.98 26.040 16.98l0.072 0.182 36.978 86.471 68.267 39.822 8.533-1.138h10.809l68.267-39.822 34.702-85.333c4.502-10.13 14.476-17.067 26.070-17.067 0.035 0 0.070 0 0.104 0h-0.005c1.71-0.381 3.674-0.599 5.689-0.599s3.979 0.218 5.87 0.632l-0.181-0.033c12.725 3.012 22.047 14.275 22.047 27.716 0 4.397-0.998 8.561-2.779 12.278l0.074-0.171zM341.333 704c31.419 0 56.889-25.47 56.889-56.889s-25.47-56.889-56.889-56.889c-31.419 0-56.889 25.47-56.889 56.889v0c0 31.419 25.47 56.889 56.889 56.889v0z" />
<glyph unicode="&#xe90b;" glyph-name="wtkm-icon-12" d="M938.667 640.284c-0.14 128.712-104.513 232.999-233.244 232.999-61.377 0-117.217-23.707-158.863-62.464l0.142 0.131c-18.348 3.429-40.076 5.873-62.198 6.795l-0.949 0.031c-219.932 0-398.222-178.29-398.222-398.222s178.29-398.222 398.222-398.222c219.932 0 398.222 178.29 398.222 398.222v0c-0.125 20.187-1.982 39.853-5.431 58.966l0.311-2.077c32.681 46.096 54.85 101.831 61.853 162.191l0.156 1.649zM704.284 817.778c98.027 0 177.493-79.466 177.493-177.493v0c0-67.129-92.729-199.68-177.493-299.804-85.333 100.124-177.493 232.676-177.493 299.804 0 98.027 79.466 177.493 177.493 177.493v0zM483.556 78.222c-188.513 0-341.333 152.82-341.333 341.333s152.82 341.333 341.333 341.333v0c6.827 0 13.084 0 19.911 0-20.904-33.887-33.365-74.917-33.564-118.843v-0.055c0-105.813 143.929-284.444 205.938-354.418 6.96-7.963 17.106-12.992 28.428-13.084h0.016c11.308 0.244 21.404 5.233 28.412 13.048l0.032 0.037c22.756 26.738 56.889 67.698 91.022 113.778-9.925-180.289-158.363-322.77-340.16-323.129h-0.036zM711.111 533.333c62.838 0 113.778 50.94 113.778 113.778s-50.94 113.778-113.778 113.778c-62.838 0-113.778-50.94-113.778-113.778v0c0-62.838 50.94-113.778 113.778-113.778v0zM711.111 704c31.419 0 56.889-25.47 56.889-56.889s-25.47-56.889-56.889-56.889c-31.419 0-56.889 25.47-56.889 56.889v0c0 31.419 25.47 56.889 56.889 56.889v0z" />
<glyph unicode="&#xe90c;" glyph-name="wtkm-icon-13" d="M893.724 147.058l-585.956 585.387h409.031c31.419 0 56.889 25.47 56.889 56.889s-25.47 56.889-56.889 56.889v0h-546.133c-31.419 0-56.889-25.47-56.889-56.889v0-546.133c0-31.419 25.47-56.889 56.889-56.889s56.889 25.47 56.889 56.889v0 409.031l585.387-585.956c10.311-10.393 24.6-16.828 40.391-16.828s30.080 6.434 40.387 16.824l0.004 0.004c10.393 10.311 16.828 24.6 16.828 40.391s-6.434 30.080-16.824 40.387l-0.004 0.004z" />
<glyph unicode="&#xe90d;" glyph-name="wtkm-icon-14" d="M73.387 464.498c10.311-10.393 24.6-16.828 40.391-16.828s30.080 6.434 40.387 16.824l0.004 0.004 300.942 301.511v-773.12c0-31.419 25.47-56.889 56.889-56.889s56.889 25.47 56.889 56.889v0 773.12l300.942-301.511c10.337-10.337 24.617-16.731 40.391-16.731 31.547 0 57.122 25.574 57.122 57.122 0 15.774-6.394 30.054-16.731 40.391l-398.222 398.222c-10.311 10.393-24.6 16.828-40.391 16.828s-30.080-6.434-40.387-16.824l-398.226-398.226c-10.393-10.311-16.828-24.6-16.828-40.391s6.434-30.080 16.824-40.387l0.004-0.004z" />
<glyph unicode="&#xe90e;" glyph-name="wtkm-icon-15" d="M211.058 66.276l585.387 585.956v-409.031c0-31.419 25.47-56.889 56.889-56.889s56.889 25.47 56.889 56.889v0 546.133c0 31.419-25.47 56.889-56.889 56.889v0h-546.133c-31.419 0-56.889-25.47-56.889-56.889s25.47-56.889 56.889-56.889v0h409.031l-585.956-585.387c-10.393-10.311-16.828-24.6-16.828-40.391s6.434-30.080 16.824-40.387l0.004-0.004c10.311-10.393 24.6-16.828 40.391-16.828s30.080 6.434 40.387 16.824l0.004 0.004z" />
<glyph unicode="&#xe90f;" glyph-name="wtkm-icon-16" d="M495.502 9.387c10.393 10.311 16.828 24.6 16.828 40.391s-6.434 30.080-16.824 40.387l-0.004 0.004-301.511 300.942h773.12c31.419 0 56.889 25.47 56.889 56.889s-25.47 56.889-56.889 56.889v0h-773.12l301.511 300.942c10.337 10.337 16.731 24.617 16.731 40.391 0 31.547-25.574 57.122-57.122 57.122-15.774 0-30.054-6.394-40.391-16.731l-398.222-398.222c-10.393-10.311-16.828-24.6-16.828-40.391s6.434-30.080 16.824-40.387l398.226-398.226c10.311-10.393 24.6-16.828 40.391-16.828s30.080 6.434 40.387 16.824l0.004 0.004z" />
<glyph unicode="&#xe910;" glyph-name="wtkm-icon-17" d="M796.444 448c0-157.094-127.35-284.444-284.444-284.444s-284.444 127.35-284.444 284.444c0 157.094 127.35 284.444 284.444 284.444s284.444-127.35 284.444-284.444z" />
<glyph unicode="&#xe911;" glyph-name="wtkm-icon-18" d="M528.498 886.613c-10.393-10.311-16.828-24.6-16.828-40.391s6.434-30.080 16.824-40.387l0.004-0.004 301.511-300.942h-773.12c-31.419 0-56.889-25.47-56.889-56.889s25.47-56.889 56.889-56.889v0h773.12l-301.511-300.942c-10.337-10.337-16.731-24.617-16.731-40.391 0-31.547 25.574-57.122 57.122-57.122 15.774 0 30.054 6.394 40.391 16.731l398.222 398.222c10.393 10.311 16.828 24.6 16.828 40.391s-6.434 30.080-16.824 40.387l-398.226 398.226c-10.311 10.393-24.6 16.828-40.391 16.828s-30.080-6.434-40.387-16.824l-0.004-0.004z" />
<glyph unicode="&#xe912;" glyph-name="wtkm-icon-19" d="M812.942 829.724l-585.387-585.956v409.031c0 31.419-25.47 56.889-56.889 56.889s-56.889-25.47-56.889-56.889v0-546.133c0-31.419 25.47-56.889 56.889-56.889v0h546.133c31.419 0 56.889 25.47 56.889 56.889s-25.47 56.889-56.889 56.889v0h-409.031l585.956 585.387c10.393 10.311 16.828 24.6 16.828 40.391s-6.434 30.080-16.824 40.387l-0.004 0.004c-10.311 10.393-24.6 16.828-40.391 16.828s-30.080-6.434-40.387-16.824l-0.004-0.004z" />
<glyph unicode="&#xe913;" glyph-name="wtkm-icon-20" d="M950.613 431.502c-10.311 10.393-24.6 16.828-40.391 16.828s-30.080-6.434-40.387-16.824l-0.004-0.004-300.942-301.511v773.12c0 31.419-25.47 56.889-56.889 56.889s-56.889-25.47-56.889-56.889v0-773.12l-300.942 301.511c-10.337 10.337-24.617 16.731-40.391 16.731-31.547 0-57.122-25.574-57.122-57.122 0-15.774 6.394-30.054 16.731-40.391l398.222-398.222c10.311-10.393 24.6-16.828 40.391-16.828s30.080 6.434 40.387 16.824l398.226 398.226c10.393 10.311 16.828 24.6 16.828 40.391s-6.434 30.080-16.824 40.387l-0.004 0.004z" />
<glyph unicode="&#xe914;" glyph-name="wtkm-icon-21" d="M130.276 748.942l585.956-585.387h-409.031c-31.419 0-56.889-25.47-56.889-56.889s25.47-56.889 56.889-56.889v0h546.133c31.419 0 56.889 25.47 56.889 56.889v0 546.133c0 31.419-25.47 56.889-56.889 56.889s-56.889-25.47-56.889-56.889v0-409.031l-585.387 585.956c-10.311 10.393-24.6 16.828-40.391 16.828s-30.080-6.434-40.387-16.824l-0.004-0.004c-10.393-10.311-16.828-24.6-16.828-40.391s6.434-30.080 16.824-40.387l0.004-0.004z" />
<glyph unicode="&#xe915;" glyph-name="wtkm-icon-22" d="M853.333 874.667h-170.667c-15.709 0-28.444-12.735-28.444-28.444s12.735-28.444 28.444-28.444v0h170.667c15.709 0 28.444-12.735 28.444-28.444v0-170.667c0-15.709 12.735-28.444 28.444-28.444s28.444 12.735 28.444 28.444v0 170.667c0 47.128-38.205 85.333-85.333 85.333v0zM910.222 305.778c-15.709 0-28.444-12.735-28.444-28.444v0-170.667c0-15.709-12.735-28.444-28.444-28.444v0h-170.667c-15.709 0-28.444-12.735-28.444-28.444s12.735-28.444 28.444-28.444v0h170.667c47.128 0 85.333 38.205 85.333 85.333v0 170.667c0 15.709-12.735 28.444-28.444 28.444v0zM113.778 590.222c15.709 0 28.444 12.735 28.444 28.444v0 170.667c0 15.709 12.735 28.444 28.444 28.444v0h170.667c15.709 0 28.444 12.735 28.444 28.444s-12.735 28.444-28.444 28.444v0h-170.667c-47.128 0-85.333-38.205-85.333-85.333v0-170.667c0-15.709 12.735-28.444 28.444-28.444v0zM341.333 78.222h-170.667c-15.709 0-28.444 12.735-28.444 28.444v0 170.667c0 15.709-12.735 28.444-28.444 28.444s-28.444-12.735-28.444-28.444v0-170.667c0-47.128 38.205-85.333 85.333-85.333v0h170.667c15.709 0 28.444 12.735 28.444 28.444s-12.735 28.444-28.444 28.444v0zM142.222 448c0-15.709 12.735-28.444 28.444-28.444v0h682.667c15.709 0 28.444 12.735 28.444 28.444s-12.735 28.444-28.444 28.444v0h-682.667c-15.709 0-28.444-12.735-28.444-28.444v0z" />
<glyph unicode="&#xe916;" glyph-name="wtkm-icon-23" d="M948.907 519.111c26.714 5.016 46.656 28.16 46.656 55.961 0 0.326-0.003 0.652-0.008 0.977l0.001-0.049v220.16c0 43.358-35.149 78.507-78.507 78.507v0h-810.098c-43.358 0-78.507-35.149-78.507-78.507v0-223.004c-0.005-0.276-0.008-0.602-0.008-0.928 0-27.802 19.943-50.945 46.303-55.906l0.353-0.055c25.276-4.062 46.532-18.588 59.526-38.906l0.208-0.347c7.745-12.753 12.33-28.17 12.33-44.658s-4.584-31.904-12.548-45.045l0.218 0.388c-12.401-20.389-32.594-34.989-56.345-39.732l-0.544-0.091c-26.085-4.885-45.708-27.041-46.646-53.947l-0.003-0.097v-196.836c1.512-41.165 34.498-74.15 75.522-75.658l0.141-0.004h810.098c43.358 0 78.507 35.149 78.507 78.507v0 196.836c-0.941 27.003-20.564 49.159-46.296 53.989l-0.353 0.055c-24.104 4.968-44.187 19.281-56.678 38.898l-0.211 0.355c-7.91 12.804-12.597 28.326-12.597 44.942s4.687 32.138 12.811 45.315l-0.214-0.373c12.505 20.162 32.679 34.557 56.351 39.166l0.538 0.087zM841.387 359.822c20.766-34.204 55.8-57.969 96.633-63.081l0.647-0.066v-196.836c0-11.939-9.679-21.618-21.618-21.618v0h-810.098c-11.939 0-21.618 9.679-21.618 21.618v194.56c42.244 6.439 77.785 30.751 99.21 64.833l0.345 0.589c13.395 21.346 21.34 47.292 21.34 75.093s-7.945 53.748-21.69 75.691l0.349-0.598c-21.207 34.743-57.184 58.675-98.981 63.097l-0.575 0.049v223.004c0 11.939 9.679 21.618 21.618 21.618v0h810.098c11.939 0 21.618-9.679 21.618-21.618v0-220.729c-68.856-10.716-120.932-69.586-120.932-140.62 0-27.772 7.96-53.684 21.723-75.581l-0.347 0.591zM641.707 642.56c-4.469 2.952-9.953 4.71-15.847 4.71-9.921 0-18.68-4.98-23.912-12.577l-0.064-0.098-227.556-341.333c-2.952-4.469-4.71-9.953-4.71-15.847 0-9.921 4.98-18.68 12.577-23.912l0.098-0.064c4.555-2.754 10.034-4.43 15.895-4.551l0.034-0.001c9.84 0.093 18.52 4.975 23.832 12.425l0.061 0.090 227.556 341.333c2.952 4.469 4.71 9.953 4.71 15.847 0 9.921-4.98 18.68-12.577 23.912l-0.098 0.064zM636.018 419.556h-20.48c-41.473 0-75.093-33.62-75.093-75.093v0-20.48c0-41.473 33.62-75.093 75.093-75.093v0h20.48c41.473 0 75.093 33.62 75.093 75.093v0 20.48c0 41.473-33.62 75.093-75.093 75.093v0zM654.222 323.982c0-10.054-8.15-18.204-18.204-18.204v0h-20.48c-10.054 0-18.204 8.15-18.204 18.204v0 20.48c0 10.054 8.15 18.204 18.204 18.204v0h20.48c10.054 0 18.204-8.15 18.204-18.204v0zM408.462 476.444c41.473 0 75.093 33.62 75.093 75.093v0 20.48c0 41.473-33.62 75.093-75.093 75.093v0h-20.48c-41.473 0-75.093-33.62-75.093-75.093v0-20.48c0-41.473 33.62-75.093 75.093-75.093v0zM369.778 551.538v20.48c0 10.054 8.15 18.204 18.204 18.204v0h20.48c10.054 0 18.204-8.15 18.204-18.204v0-20.48c0-10.054-8.15-18.204-18.204-18.204v0h-20.48c-10.054 0-18.204 8.15-18.204 18.204v0z" />
<glyph unicode="&#xe917;" glyph-name="wtkm-icon-24" d="M1024 704c0 0.042 0 0.093 0 0.143 0 78.547-63.675 142.222-142.222 142.222-68.53 0-125.739-48.469-139.216-112.996l-0.161-0.924h-600.178c-47.128 0-85.333-38.205-85.333-85.333v0-512c0-47.128 38.205-85.333 85.333-85.333v0h682.667c47.128 0 85.333 38.205 85.333 85.333v0 426.667c65.395 13.684 113.807 70.866 113.807 139.355 0 1.008-0.010 2.014-0.031 3.017l0.002-0.15zM142.222 675.556h600.178c10.666-57.108 54.281-101.678 110-113.61l0.933-0.167v-33.564l-338.489-193.422c-8.947-5.381-19.746-8.564-31.289-8.564s-22.342 3.183-31.567 8.719l0.278-0.155-338.489 196.267v113.778c-0.058 0.681-0.091 1.475-0.091 2.276 0 15.709 12.735 28.444 28.444 28.444 0.032 0 0.064 0 0.096 0h-0.005zM824.889 106.667h-682.667c-15.709 0-28.444 12.735-28.444 28.444v0 329.956l310.044-176.924c17.148-10.009 37.751-15.918 59.733-15.918s42.585 5.909 60.306 16.226l-0.572-0.308 310.044 176.924v-329.956c0-15.709-12.735-28.444-28.444-28.444v0zM881.778 618.667c-47.128 0-85.333 38.205-85.333 85.333s38.205 85.333 85.333 85.333c47.128 0 85.333-38.205 85.333-85.333v0c0-47.128-38.205-85.333-85.333-85.333v0z" />
<glyph unicode="&#xe918;" glyph-name="wtkm-icon-25" d="M770.276 604.444c-5.12 184.889-144.498 298.667-369.209 298.667s-369.778-113.778-369.778-310.044c-0.080-2.569-0.126-5.591-0.126-8.623 0-68.652 23.386-131.842 62.626-182.038l-0.491 0.652v-154.169c0.167-10.246 5.518-19.206 13.537-24.392l0.116-0.070c4.279-2.346 9.346-3.798 14.735-3.981l0.056-0.001c1.881-0.41 4.042-0.644 6.258-0.644s4.377 0.235 6.459 0.68l-0.202-0.036 144.498 75.662c13.653-2.844 27.307-4.551 40.96-6.258 21.618-149.049 143.929-240.071 334.507-240.071 0.835-0.005 1.822-0.008 2.81-0.008 38.325 0 75.632 4.356 111.454 12.6l-3.331-0.645 129.707-68.836c2.307-0.566 4.956-0.89 7.68-0.89s5.373 0.325 7.909 0.937l-0.229-0.047c0.173-0.004 0.377-0.006 0.581-0.006 5.254 0 10.162 1.484 14.327 4.056l-0.118-0.068c8.136 5.256 13.486 14.216 13.653 24.438v139.403c35.547 45.045 57.017 102.635 57.017 165.239 0 2.909-0.046 5.807-0.138 8.694l0.011-0.422c0.061 2.126 0.096 4.627 0.096 7.137 0 132.615-96.96 242.585-223.856 262.885l-1.52 0.2zM315.164 348.444c-13.199 1.289-24.844 3.095-36.272 5.496l2.138-0.376c-3.037 1.207-6.557 1.907-10.24 1.907s-7.203-0.7-10.433-1.974l0.193 0.067-113.778-56.889v116.622c0.001 0.085 0.001 0.185 0.001 0.285 0 7.076-2.584 13.549-6.86 18.526l0.032-0.038c-35.419 41.201-56.985 95.201-56.985 154.238 0 2.376 0.035 4.744 0.104 7.103l-0.008-0.346c5.12 228.693 224.142 253.156 318.009 253.156s297.529-23.893 311.751-231.538c-16.862 2.298-36.578 3.738-56.583 3.979l-0.306 0.003c-0.443 0.001-0.967 0.002-1.491 0.002-30.228 0-59.828-2.691-88.573-7.848l3.024 0.45c0.277 1.111 0.435 2.386 0.435 3.698s-0.159 2.587-0.458 3.807l0.023-0.109c0 15.709-12.735 28.444-28.444 28.444s-28.444-12.735-28.444-28.444v0c0.11-6.786 2.679-12.952 6.852-17.664l-0.025 0.029c-115.363-28.768-199.838-130.522-201.952-252.352l-0.003-0.235zM884.053 189.724c-4.244-4.939-6.828-11.412-6.828-18.488 0-0.1 0.001-0.2 0.002-0.3v0.015-103.538l-97.849 49.493c-3.715 2.147-8.171 3.414-12.924 3.414-0.057 0-0.113 0-0.17-0.001h-6.818c-31.523-8.461-67.754-13.429-105.109-13.653l-0.135-0.001c-84.764 0-281.6 22.187-281.6 227.556s196.836 227.556 284.444 227.556c29.020-0.123 57.368-2.601 84.977-7.252l-3.057 0.426c90.453-17.067 197.973-68.267 197.973-220.16 0.101-2.434 0.159-5.289 0.159-8.158 0-52.438-19.227-100.385-51.016-137.177l0.226 0.268zM571.733 334.222c0-15.709-12.735-28.444-28.444-28.444s-28.444 12.735-28.444 28.444c0 15.709 12.735 28.444 28.444 28.444s28.444-12.735 28.444-28.444zM799.289 334.222c0-15.709-12.735-28.444-28.444-28.444s-28.444 12.735-28.444 28.444c0 15.709 12.735 28.444 28.444 28.444s28.444-12.735 28.444-28.444zM287.289 618.667c0-15.709-12.735-28.444-28.444-28.444s-28.444 12.735-28.444 28.444c0 15.709 12.735 28.444 28.444 28.444s28.444-12.735 28.444-28.444z" />
<glyph unicode="&#xe919;" glyph-name="wtkm-icon-26" d="M483.556 220.444c0-15.709 12.735-28.444 28.444-28.444s28.444 12.735 28.444 28.444v0 142.222h142.222c15.709 0 28.444 12.735 28.444 28.444s-12.735 28.444-28.444 28.444v0h-142.222v113.778h142.222c15.709 0 28.444 12.735 28.444 28.444s-12.735 28.444-28.444 28.444v0h-101.831l64.853 65.422c5.096 5.096 8.247 12.135 8.247 19.911 0 15.552-12.607 28.159-28.159 28.159-7.776 0-14.815-3.152-19.911-8.247v0l-93.867-93.298-93.867 93.298c-5.096 5.096-12.135 8.247-19.911 8.247-15.552 0-28.159-12.607-28.159-28.159 0-7.776 3.152-14.815 8.247-19.911v0l64.853-65.422h-101.831c-15.709 0-28.444-12.735-28.444-28.444s12.735-28.444 28.444-28.444v0h142.222v-113.778h-142.222c-15.709 0-28.444-12.735-28.444-28.444s12.735-28.444 28.444-28.444v0h142.222zM512 903.111c-250.794-0.736-453.817-204.213-453.817-455.109 0-132.711 56.803-252.156 147.423-335.346l0.332-0.301h-95.573c-15.582-0.312-28.132-12.862-28.444-28.415v-0.029c0-15.709 12.735-28.444 28.444-28.444v0h170.667c15.709 0 28.444 12.735 28.444 28.444v0 170.667c0 15.709-12.735 28.444-28.444 28.444v0c-15.582-0.312-28.132-12.862-28.444-28.415v-108.687c-85.163 73.459-138.745 181.512-138.745 302.080 0 219.932 178.29 398.222 398.222 398.222s398.222-178.29 398.222-398.222c0-219.932-178.29-398.222-398.222-398.222-0.023 0-0.045 0-0.068 0h0.004c-15.709 0-28.444-12.735-28.444-28.444s12.735-28.444 28.444-28.444v0c251.351 0 455.111 203.76 455.111 455.111s-203.76 455.111-455.111 455.111v0z" />
<glyph unicode="&#xe91a;" glyph-name="wtkm-icon-27" d="M796.444 488.96v319.147c0.077 1.401 0.122 3.040 0.122 4.689 0 48.198-37.697 87.591-85.215 90.304l-0.24 0.011h-568.889c-47.758-2.724-85.455-42.117-85.455-90.315 0-1.649 0.044-3.289 0.131-4.916l-0.010 0.227v-663.324c-0.077-1.401-0.122-3.040-0.122-4.689 0-48.198 37.697-87.591 85.215-90.304l0.24-0.011h398.222c1.454-0.258 3.127-0.406 4.836-0.406s3.382 0.148 5.009 0.431l-0.173-0.025c43.284-35.423 99.186-56.89 160.101-56.89 0.314 0 0.629 0.001 0.943 0.002h-0.049c140.931 0.185 255.106 114.474 255.106 255.431 0 110.359-69.986 204.371-167.997 240.075l-1.776 0.566zM113.778 144.782v663.324c0 20.48 13.084 38.116 28.444 38.116h568.889c15.36 0 28.444-17.636 28.444-38.116v-306.062c-8.208 1.397-18.007 2.415-27.962 2.829l-0.482 0.016c-89.618-0.003-168.432-46.261-213.869-116.202l-0.602-0.989c-3.814 1.907-8.275 3.137-12.993 3.409l-0.091 0.004h-227.556c-15.709 0-28.444-12.735-28.444-28.444s12.735-28.444 28.444-28.444v0h215.040c-6.259-16.573-10.875-35.843-12.996-55.857l-0.089-1.032h-201.956c-15.709 0-28.444-12.735-28.444-28.444s12.735-28.444 28.444-28.444v0h201.956c4.422-42.804 18.883-81.512 40.973-114.707l-0.582 0.929h-356.124c-15.36 0-28.444 17.636-28.444 38.116zM711.111 49.778c-109.966 0-199.111 89.145-199.111 199.111s89.145 199.111 199.111 199.111c109.966 0 199.111-89.145 199.111-199.111v0c0-109.966-89.145-199.111-199.111-199.111v0zM824.889 277.333h-85.333v85.333c0 15.709-12.735 28.444-28.444 28.444s-28.444-12.735-28.444-28.444v0-113.778c0-15.709 12.735-28.444 28.444-28.444v0h113.778c15.709 0 28.444 12.735 28.444 28.444s-12.735 28.444-28.444 28.444v0zM256 504.889h341.333c15.709 0 28.444 12.735 28.444 28.444v0 170.667c0 15.709-12.735 28.444-28.444 28.444v0h-341.333c-15.709 0-28.444-12.735-28.444-28.444v0-170.667c0-15.709 12.735-28.444 28.444-28.444v0zM284.444 675.556h284.444v-113.778h-284.444z" />
<glyph unicode="&#xe91b;" glyph-name="wtkm-icon-28" d="M787.911 467.911l-227.556 227.556c-5.096 5.096-12.135 8.247-19.911 8.247-15.552 0-28.159-12.607-28.159-28.159 0-7.776 3.152-14.815 8.247-19.911v0l207.076-207.644-207.076-207.644c-5.312-4.994-8.62-12.066-8.62-19.911s3.308-14.917 8.606-19.898l0.014-0.013c4.994-5.312 12.066-8.62 19.911-8.62s14.917 3.308 19.898 8.606l0.013 0.014 227.556 227.556c5.312 4.994 8.62 12.066 8.62 19.911s-3.308 14.917-8.606 19.898l-0.014 0.013zM503.467 467.911l-227.556 227.556c-5.096 5.096-12.135 8.247-19.911 8.247-15.552 0-28.159-12.607-28.159-28.159 0-7.776 3.152-14.815 8.247-19.911v0l207.076-207.644-207.076-207.644c-5.312-4.994-8.62-12.066-8.62-19.911s3.308-14.917 8.606-19.898l0.014-0.013c4.994-5.312 12.066-8.62 19.911-8.62s14.917 3.308 19.898 8.606l0.013 0.014 227.556 227.556c5.312 4.994 8.62 12.066 8.62 19.911s-3.308 14.917-8.606 19.898l-0.014 0.013z" />
<glyph unicode="&#xe91c;" glyph-name="wtkm-icon-29" d="M824.889 704h-199.111v28.444c0.005 0.338 0.008 0.738 0.008 1.138 0 46.5-37.696 84.196-84.196 84.196-0.003 0-0.005 0-0.008 0h-56.889c-0.68 0.020-1.481 0.031-2.284 0.031-46.5 0-84.196-37.696-84.196-84.196 0-0.411 0.003-0.821 0.009-1.231l-0.001 0.062v-28.444h-199.111c-15.709 0-28.444-12.735-28.444-28.444v0-113.778c0-15.709 12.735-28.444 28.444-28.444v0h28.444v-349.298c0-58.439 47.374-105.813 105.813-105.813h357.262c58.439 0 105.813 47.374 105.813 105.813v0 349.298h28.444c15.709 0 28.444 12.735 28.444 28.444v0 113.778c0 15.709-12.735 28.444-28.444 28.444v0zM455.111 732.444c-0.004 0.171-0.006 0.373-0.006 0.575 0 14.767 11.971 26.738 26.738 26.738 0.202 0 0.404-0.002 0.605-0.007l-0.030 0.001h56.889c0.856 0.097 1.849 0.153 2.854 0.153 14.767 0 26.738-11.971 26.738-26.738 0-0.254-0.004-0.507-0.011-0.759l0.001 0.037v-28.444h-113.778zM739.556 182.898c-0.317-26.892-22.033-48.607-48.894-48.924h-357.292c-27.090 0.319-48.928 22.355-48.928 49.49 0 0.201 0.001 0.402 0.004 0.603v-0.031 349.298h455.111zM796.444 590.222h-568.889v56.889h568.889zM426.667 248.889c15.709 0 28.444 12.735 28.444 28.444v0 113.778c0 15.709-12.735 28.444-28.444 28.444s-28.444-12.735-28.444-28.444v0-113.778c0-15.709 12.735-28.444 28.444-28.444v0zM597.333 248.889c15.709 0 28.444 12.735 28.444 28.444v0 113.778c0 15.709-12.735 28.444-28.444 28.444s-28.444-12.735-28.444-28.444v0-113.778c0-15.709 12.735-28.444 28.444-28.444v0z" />
<glyph unicode="&#xe91d;" glyph-name="wtkm-icon-30" d="M512 192c-0.097-0.001-0.211-0.002-0.326-0.002-7.727 0-14.689 3.278-19.57 8.519l-0.015 0.016-227.556 227.556c-5.32 4.903-8.642 11.905-8.642 19.684 0 4 0.878 7.795 2.453 11.202l-0.069-0.166c4.352 10.394 14.414 17.575 26.161 17.636h85.341v199.111c0 15.709 12.735 28.444 28.444 28.444v0h227.556c15.709 0 28.444-12.735 28.444-28.444v0-199.111h85.333c11.755-0.061 21.817-7.242 26.099-17.448l0.070-0.187c1.506-3.242 2.384-7.036 2.384-11.036 0-7.778-3.321-14.781-8.623-19.667l-0.019-0.017-227.556-227.556c-4.896-5.257-11.858-8.535-19.585-8.535-0.115 0-0.229 0.001-0.343 0.002h0.017zM353.28 419.556l158.72-158.72 158.72 158.72h-44.942c-15.709 0-28.444 12.735-28.444 28.444v0 199.111h-170.667v-199.111c0-15.709-12.735-28.444-28.444-28.444v0z" />
<glyph unicode="&#xe91e;" glyph-name="wtkm-icon-31" d="M967.111 597.049l-46.080 184.32c-9.284 37.5-42.644 64.862-82.395 64.862-0.433 0-0.866-0.003-1.297-0.010l0.065 0.001h-650.809c-0.029 0-0.062 0-0.096 0-39.747 0-73.105-27.358-82.27-64.27l-0.122-0.583-47.218-184.32c-0.264-1.025-0.416-2.201-0.416-3.413s0.152-2.388 0.437-3.512l-0.021 0.098v-85.333c0.069-39.946 20.712-75.055 51.896-95.304l0.442-0.269v-331.093c0-47.128 38.205-85.333 85.333-85.333v0h630.329c47.128 0 85.333 38.205 85.333 85.333v0 328.818c34.056 19.925 56.63 56.222 56.889 97.812v85.37c0.264 1.025 0.416 2.201 0.416 3.413s-0.152 2.388-0.437 3.512l0.021-0.098zM853.333 78.222c0-15.709-12.735-28.444-28.444-28.444v0h-630.329c-15.709 0-28.444 12.735-28.444 28.444v0 312.889h4.551c33.949 0.044 64.408 14.951 85.226 38.56l0.107 0.124c20.95-23.673 51.408-38.521 85.333-38.521s64.383 14.848 85.229 38.401l0.104 0.12c20.95-23.673 51.408-38.521 85.333-38.521s64.383 14.848 85.229 38.401l0.104 0.12c20.95-23.673 51.408-38.521 85.333-38.521s64.383 14.848 85.229 38.401l0.104 0.12c20.925-23.734 51.384-38.64 85.325-38.684h0.008zM910.222 504.889c0-31.419-25.47-56.889-56.889-56.889s-56.889 25.47-56.889 56.889v0 85.333c0 15.709-12.735 28.444-28.444 28.444s-28.444-12.735-28.444-28.444v0-85.333c0-31.419-25.47-56.889-56.889-56.889s-56.889 25.47-56.889 56.889v0 85.333c0 15.709-12.735 28.444-28.444 28.444s-28.444-12.735-28.444-28.444v0-85.333c0-31.419-25.47-56.889-56.889-56.889s-56.889 25.47-56.889 56.889v0 85.333c0 15.709-12.735 28.444-28.444 28.444s-28.444-12.735-28.444-28.444v0-85.333c0-31.419-25.47-56.889-56.889-56.889s-56.889 25.47-56.889 56.889v0 85.333c0 15.709-12.735 28.444-28.444 28.444s-28.444-12.735-28.444-28.444v0-85.333c0-31.419-25.47-56.889-56.889-56.889s-56.889 25.47-56.889 56.889v0 81.92l45.511 180.907c2.947 12.476 13.988 21.618 27.164 21.618 0.050 0 0.1 0 0.15 0h650.801c0.042 0 0.092 0 0.143 0 13.176 0 24.217-9.142 27.126-21.429l0.038-0.189 45.511-180.907z" />
<glyph unicode="&#xe91f;" glyph-name="wtkm-icon-32" d="M439.182 114.631h-56.889c-15.709 0-28.444-12.735-28.444-28.444v0c0-15.709 12.735-28.444 28.444-28.444v0h56.889c15.709 0 28.444 12.735 28.444 28.444v0c0 15.709-12.735 28.444-28.444 28.444v0zM979.627 256.853c-0.086 8.276-3.557 15.724-9.092 21.039l-0.010 0.010-60.302 56.32 2.844 82.489c0.006 0.216 0.009 0.471 0.009 0.726 0 7.959-3.269 15.155-8.538 20.318l-0.005 0.005c-4.991 6.198-12.549 10.154-21.034 10.24h-0.014l-82.489-2.844-56.32 59.733c-5.204 5.548-12.58 9.004-20.764 9.004s-15.561-3.456-20.75-8.989l-0.014-0.015-7.964-7.964v292.409c-0.962 67.441-55.858 121.742-123.437 121.742-0.004 0-0.008 0-0.012 0h-321.991c-0.003 0-0.008 0-0.012 0-67.579 0-122.475-54.301-123.436-121.652l-0.001-0.091v-721.92c0-68.179 55.27-123.449 123.449-123.449v0h321.991c52.366 1.348 96.547 34.955 113.504 81.626l0.274 0.863 15.36-16.498c5.022-5.597 12.278-9.103 20.353-9.103 0.044 0 0.089 0 0.133 0h-0.007c8.276 0.086 15.724 3.557 21.039 9.092l0.010 0.010 56.889 60.302h82.489c0.147-0.003 0.32-0.004 0.494-0.004 8.032 0 15.301 3.263 20.554 8.537l0.001 0.001c5.274 5.254 8.538 12.524 8.538 20.555 0 0.174-0.002 0.347-0.005 0.52v-0.026l-1.138 79.644 60.302 56.889c5.597 5.022 9.103 12.278 9.103 20.353 0 0.044 0 0.089 0 0.133v-0.007zM537.031 334.222l-60.302-56.889c-5.545-5.325-9.016-12.773-9.102-21.033v-0.016c0-0.038 0-0.082 0-0.127 0-8.075 3.505-15.332 9.077-20.331l0.026-0.023 7.964-7.964h-301.511v512h455.111v-295.822l-74.524 3.982c-0.147 0.003-0.32 0.004-0.494 0.004-8.032 0-15.301-3.263-20.554-8.537l-0.001-0.001c-5.274-5.167-8.543-12.363-8.543-20.322 0-0.255 0.003-0.51 0.010-0.764l-0.001 0.037zM252.587 854.187h321.991c33.023-0.262 60.251-24.74 64.812-56.536l0.042-0.353h-453.973c4.339 32.078 31.404 56.589 64.253 56.889h0.031zM574.578 0.853h-324.836c-36.631 0.319-66.241 29.929-66.56 66.53v104.137h353.849v-74.524c-0.003-0.147-0.004-0.32-0.004-0.494 0-8.032 3.263-15.301 8.537-20.554l0.001-0.001c5.489-5.19 12.881-8.418 21.026-8.533h74.547c0-0.018 0-0.039 0-0.061 0-36.76-29.8-66.56-66.56-66.56-1 0-1.996 0.022-2.985 0.066l0.141-0.005zM864.711 212.48c-5.613-5.302-9.107-12.797-9.107-21.107 0-0.18 0.002-0.359 0.005-0.538v0.027-65.422h-64.853c-0.605 0.049-1.311 0.077-2.023 0.077-8.032 0-15.236-3.541-20.137-9.148l-0.027-0.031-44.373-47.787-36.978 39.253-7.396 7.964c-5.325 5.545-12.773 9.016-21.033 9.102h-65.438v65.422c0.003 0.152 0.004 0.331 0.004 0.511 0 8.31-3.494 15.804-9.093 21.094l-47.801 44.386 47.787 44.373c5.622 5.303 9.122 12.804 9.122 21.121 0 0.375-0.007 0.748-0.021 1.119l0.002-0.054v64.853h65.422c8.387 0.465 15.907 3.841 21.642 9.124l-0.024-0.022 7.396 8.533 36.978 39.253 44.373-47.787c5.8-5.464 13.574-8.889 22.145-9.101l0.042-0.001h64.853v-64.853c-0.012-0.318-0.020-0.691-0.020-1.066 0-8.318 3.5-15.818 9.108-21.108l47.801-44.386zM730.453 349.013c-47.128 0-85.333-38.205-85.333-85.333s38.205-85.333 85.333-85.333c47.128 0 85.333 38.205 85.333 85.333v0c0 47.128-38.205 85.333-85.333 85.333v0zM730.453 235.236c-15.582 0.312-28.132 12.862-28.444 28.415v0.029c0 15.709 12.735 28.444 28.444 28.444v0c15.709 0 28.444-12.735 28.444-28.444v0c0-15.709-12.735-28.444-28.444-28.444v0z" />
<glyph unicode="&#xe920;" glyph-name="wtkm-icon-33" d="M910.222 419.556c-15.709 0-28.444-12.735-28.444-28.444v0-199.111c0-31.419-25.47-56.889-56.889-56.889v0h-625.778c-31.419 0-56.889 25.47-56.889 56.889v0 199.111c0 15.709-12.735 28.444-28.444 28.444s-28.444-12.735-28.444-28.444v0-199.111c0-62.838 50.94-113.778 113.778-113.778v0h625.778c62.838 0 113.778 50.94 113.778 113.778v0 199.111c0 15.709-12.735 28.444-28.444 28.444v0zM492.089 257.422c2.581-2.522 5.589-4.62 8.904-6.174l0.199-0.084c3.195-1.35 6.911-2.134 10.809-2.134s7.613 0.784 10.996 2.203l-0.187-0.070c3.657 1.273 6.733 3.432 9.076 6.226l0.026 0.032 170.667 170.667c5.168 5.168 8.365 12.309 8.365 20.196 0 15.774-12.787 28.561-28.561 28.561-7.887 0-15.027-3.197-20.196-8.365v0l-121.742-122.311v443.164c0 15.709-12.735 28.444-28.444 28.444s-28.444-12.735-28.444-28.444v0-443.164l-122.311 121.742c-5.168 5.168-12.309 8.365-20.196 8.365-15.774 0-28.561-12.787-28.561-28.561 0-7.887 3.197-15.027 8.365-20.196v0z" />
<glyph unicode="&#xe921;" glyph-name="wtkm-icon-34" d="M910.222 419.556c-15.709 0-28.444-12.735-28.444-28.444v0-199.111c0-31.419-25.47-56.889-56.889-56.889v0h-625.778c-31.419 0-56.889 25.47-56.889 56.889v0 199.111c0 15.709-12.735 28.444-28.444 28.444s-28.444-12.735-28.444-28.444v0-199.111c0-62.838 50.94-113.778 113.778-113.778v0h625.778c62.838 0 113.778 50.94 113.778 113.778v0 199.111c0 15.709-12.735 28.444-28.444 28.444v0zM361.244 598.187l121.742 122.311v-443.164c0-15.709 12.735-28.444 28.444-28.444s28.444 12.735 28.444 28.444v0 443.164l122.311-121.742c5.168-5.168 12.309-8.365 20.196-8.365 15.774 0 28.561 12.787 28.561 28.561 0 7.887-3.197 15.027-8.365 20.196l-170.667 170.667c-2.581 2.522-5.589 4.62-8.904 6.174l-0.199 0.084c-3.195 1.35-6.911 2.134-10.809 2.134s-7.613-0.784-10.996-2.203l0.187 0.070c-3.657-1.273-6.733-3.432-9.076-6.226l-0.026-0.032-170.667-170.667c-5.168-5.168-8.365-12.309-8.365-20.196 0-15.774 12.787-28.561 28.561-28.561 7.887 0 15.027 3.197 20.196 8.365v0z" />
<glyph unicode="&#xe922;" glyph-name="wtkm-icon-35" d="M739.556 419.556h-85.333v312.889c0 15.709-12.735 28.444-28.444 28.444v0h-227.556c-15.709 0-28.444-12.735-28.444-28.444v0-312.889h-85.333c-11.755-0.061-21.817-7.242-26.099-17.448l-0.070-0.187c-1.506-3.242-2.384-7.036-2.384-11.036 0-7.778 3.321-14.781 8.623-19.667l0.019-0.017 227.556-227.556c4.994-5.312 12.066-8.62 19.911-8.62s14.917 3.308 19.898 8.606l0.013 0.014 227.556 227.556c5.32 4.903 8.642 11.905 8.642 19.684 0 4-0.878 7.795-2.453 11.202l0.069-0.166c-4.352 10.394-14.414 17.575-26.161 17.636h-0.008zM512 203.947l-158.72 158.72h44.942c15.709 0 28.444 12.735 28.444 28.444v0 312.889h170.667v-312.889c0-15.709 12.735-28.444 28.444-28.444v0h44.942zM739.556 931.556h-455.111c-141.255-0.323-255.677-114.745-256-255.969v-455.142c0.323-141.255 114.745-255.677 255.969-256h455.142c141.255 0.323 255.677 114.745 256 255.969v455.142c-0.323 141.255-114.745 255.677-255.969 256h-0.031zM938.667 220.444c0-109.966-89.145-199.111-199.111-199.111v0h-455.111c-109.966 0-199.111 89.145-199.111 199.111v0 455.111c0 109.966 89.145 199.111 199.111 199.111v0h455.111c109.966 0 199.111-89.145 199.111-199.111v0z" />
<glyph unicode="&#xe923;" glyph-name="wtkm-icon-36" d="M284.444 476.444h85.333v-312.889c0-15.709 12.735-28.444 28.444-28.444v0h227.556c15.709 0 28.444 12.735 28.444 28.444v0 312.889h85.333c11.755 0.061 21.817 7.242 26.099 17.448l0.070 0.187c1.506 3.242 2.384 7.036 2.384 11.036 0 7.778-3.321 14.781-8.623 19.667l-0.019 0.017-227.556 227.556c-4.994 5.312-12.066 8.62-19.911 8.62s-14.917-3.308-19.898-8.606l-0.013-0.014-227.556-227.556c-5.32-4.903-8.642-11.905-8.642-19.684 0-4 0.878-7.795 2.453-11.202l-0.069 0.166c4.352-10.394 14.414-17.575 26.161-17.636h0.008zM512 692.053l158.72-158.72h-44.942c-15.709 0-28.444-12.735-28.444-28.444v0-312.889h-170.667v312.889c0 15.709-12.735 28.444-28.444 28.444v0h-44.942zM739.556 931.556h-455.111c-141.255-0.323-255.677-114.745-256-255.969v-455.142c0.323-141.255 114.745-255.677 255.969-256h455.142c141.255 0.323 255.677 114.745 256 255.969v455.142c-0.323 141.255-114.745 255.677-255.969 256h-0.031zM938.667 220.444c0-109.966-89.145-199.111-199.111-199.111v0h-455.111c-109.966 0-199.111 89.145-199.111 199.111v0 455.111c0 109.966 89.145 199.111 199.111 199.111v0h455.111c109.966 0 199.111-89.145 199.111-199.111v0z" />
<glyph unicode="&#xe924;" glyph-name="wtkm-icon-37" d="M810.667 476.444h-270.222v270.222c0 15.709-12.735 28.444-28.444 28.444s-28.444-12.735-28.444-28.444v0-270.222h-270.222c-15.709 0-28.444-12.735-28.444-28.444s12.735-28.444 28.444-28.444v0h270.222v-270.222c0-15.709 12.735-28.444 28.444-28.444s28.444 12.735 28.444 28.444v0 270.222h270.222c15.709 0 28.444 12.735 28.444 28.444s-12.735 28.444-28.444 28.444v0z" />
<glyph unicode="&#xe925;" glyph-name="wtkm-icon-38" d="M227.556 391.111c0.164 96.261 48.118 181.287 121.397 232.638l0.914 0.607c-5.256 15.254-8.366 32.836-8.533 51.121l-0.001 0.079c0 94.257 76.41 170.667 170.667 170.667s170.667-76.41 170.667-170.667v0c-0.167-18.364-3.277-35.946-8.881-52.373l0.348 1.173c74.193-51.958 122.148-136.983 122.311-233.219v-0.026c0.313 0.002 0.683 0.003 1.054 0.003 94.257 0 170.667-76.41 170.667-170.667s-76.41-170.667-170.667-170.667c-65.347 0-122.117 36.727-150.793 90.665l-0.448 0.923c-38.703-21.838-84.978-34.704-134.258-34.704s-95.555 12.866-135.648 35.423l1.39-0.719c-29.123-54.861-85.893-91.588-151.24-91.588-94.257 0-170.667 76.41-170.667 170.667s76.41 170.667 170.667 170.667c0.37 0 0.741-0.001 1.11-0.004h-0.057zM512 789.333c-62.838 0-113.778-50.94-113.778-113.778s50.94-113.778 113.778-113.778c62.838 0 113.778 50.94 113.778 113.778v0c0 62.838-50.94 113.778-113.778 113.778v0zM796.444 106.667c62.838 0 113.778 50.94 113.778 113.778s-50.94 113.778-113.778 113.778c-62.838 0-113.778-50.94-113.778-113.778v0c0-62.838 50.94-113.778 113.778-113.778v0zM625.778 196.551c-1.383 8.010-2.174 17.236-2.174 26.646 0 73.506 48.239 135.746 114.787 156.788l1.164 0.318c0 3.982 0 7.396 0 10.809-0.143 74.281-35.855 140.19-91.005 181.623l-0.586 0.421c-31.488-41.201-80.654-67.513-135.964-67.513s-104.476 26.311-135.662 67.101l-0.302 0.412c-55.736-41.854-91.448-107.764-91.591-182.021v-0.023c0-3.413 0-6.827 0-10.809 67.712-21.36 115.951-83.599 115.951-157.106 0-9.41-0.791-18.635-2.309-27.613l0.135 0.968c32.638-19.167 71.886-30.487 113.778-30.487s81.14 11.32 114.852 31.068l-1.074-0.581zM227.556 106.667c62.838 0 113.778 50.94 113.778 113.778s-50.94 113.778-113.778 113.778c-62.838 0-113.778-50.94-113.778-113.778v0c0-62.838 50.94-113.778 113.778-113.778v0z" />
<glyph unicode="&#xe926;" glyph-name="wtkm-icon-39" d="M199.111 903.111h398.222c78.547 0 142.222-63.675 142.222-142.222v0-258.844c135.349-7.75 242.173-119.4 242.173-256 0-141.603-114.792-256.395-256.395-256.395-5.003 0-9.973 0.143-14.905 0.426l0.682-0.031c-60.45 0.141-115.863 21.592-159.153 57.235l0.433-0.346h-353.28c-0.008 0-0.018 0-0.028 0-78.547 0-142.222 63.675-142.222 142.222 0 1 0.010 1.998 0.031 2.993l-0.002-0.149v568.889c0 78.547 63.675 142.222 142.222 142.222v0zM711.111 49.778c109.966 0 199.111 89.145 199.111 199.111s-89.145 199.111-199.111 199.111c-109.966 0-199.111-89.145-199.111-199.111v0c0-109.966 89.145-199.111 199.111-199.111v0zM113.778 192c0-47.128 38.205-85.333 85.333-85.333v0h299.236c-27.067 39.858-43.214 89.036-43.214 141.985 0 131.13 99.031 239.129 226.383 253.289l1.151 0.104v258.844c0 47.128-38.205 85.333-85.333 85.333v0h-398.222c-47.128 0-85.333-38.205-85.333-85.333v0zM711.111 391.111c15.709 0 28.444-12.735 28.444-28.444v0-85.333h85.333c15.709 0 28.444-12.735 28.444-28.444s-12.735-28.444-28.444-28.444v0h-113.778c-15.709 0-28.444 12.735-28.444 28.444v0 113.778c0 15.709 12.735 28.444 28.444 28.444v0zM256 789.333h284.444c47.128 0 85.333-38.205 85.333-85.333s-38.205-85.333-85.333-85.333v0h-284.444c-47.128 0-85.333 38.205-85.333 85.333s38.205 85.333 85.333 85.333v0zM256 675.556h284.444c15.709 0 28.444 12.735 28.444 28.444s-12.735 28.444-28.444 28.444v0h-284.444c-15.709 0-28.444-12.735-28.444-28.444s12.735-28.444 28.444-28.444v0zM199.111 561.778h341.333c15.709 0 28.444-12.735 28.444-28.444s-12.735-28.444-28.444-28.444v0h-341.333c-15.709 0-28.444 12.735-28.444 28.444s12.735 28.444 28.444 28.444v0zM199.111 448h170.667c15.709 0 28.444-12.735 28.444-28.444s-12.735-28.444-28.444-28.444v0h-170.667c-15.709 0-28.444 12.735-28.444 28.444s12.735 28.444 28.444 28.444v0zM199.111 334.222h170.667c15.709 0 28.444-12.735 28.444-28.444s-12.735-28.444-28.444-28.444v0h-170.667c-15.709 0-28.444 12.735-28.444 28.444s12.735 28.444 28.444 28.444v0z" />
<glyph unicode="&#xe927;" glyph-name="wtkm-icon-40" d="M1020.587 217.031c0 0.038 0 0.082 0 0.127 0 8.075-3.505 15.332-9.077 20.331l-0.026 0.023-60.302 56.889 2.844 82.489c0.003 0.147 0.004 0.32 0.004 0.494 0 8.032-3.263 15.301-8.537 20.554l-0.001 0.001c-5.079 5.274-12.202 8.55-20.089 8.55-0.338 0-0.674-0.006-1.008-0.018l0.049 0.001h-67.698v89.316c34.056 19.925 56.63 56.222 56.889 97.812v85.37c0.134 1.025 0.21 2.21 0.21 3.413s-0.076 2.388-0.224 3.551l0.014-0.138-46.080 184.32c-9.726 37.561-43.318 64.854-83.284 64.854-0.121 0-0.241 0-0.362-0.001h-650.79c-0.029 0-0.062 0-0.096 0-39.747 0-73.105-27.358-82.27-64.27l-0.122-0.583-46.080-184.32c-0.131-1.025-0.206-2.21-0.206-3.413s0.075-2.389 0.22-3.552l-0.014 0.139v-85.333c0.069-39.946 20.712-75.055 51.896-95.304l0.442-0.269v-331.093c0-47.128 38.205-85.333 85.333-85.333v0h434.631v-24.462c-0.003-0.147-0.004-0.32-0.004-0.494 0-8.032 3.263-15.301 8.537-20.554l0.001-0.001c5.461-5.237 12.871-8.479 21.038-8.533h0.011l82.489 2.844 56.889-60.302c5.325-5.545 12.773-9.016 21.033-9.102h0.016c0.038 0 0.082 0 0.127 0 8.075 0 15.332 3.505 20.331 9.077l0.023 0.026 56.889 60.302 82.489-2.844c0.171-0.004 0.373-0.006 0.575-0.006 16.024 0 29.013 12.99 29.013 29.013 0 0.202-0.002 0.404-0.006 0.605v-0.030l-2.844 82.489 60.302 56.889c4.272 5.093 6.866 11.718 6.866 18.95 0 0.538-0.014 1.073-0.043 1.604l0.003-0.074zM60.302 675.556l45.511 180.907c2.947 12.476 13.988 21.618 27.164 21.618 0.050 0 0.1 0 0.15 0h650.801c0.042 0 0.092 0 0.143 0 13.176 0 24.217-9.142 27.126-21.429l0.038-0.189 45.511-180.907v-81.92c0-31.419-25.47-56.889-56.889-56.889s-56.889 25.47-56.889 56.889v0 85.333c0 15.709-12.735 28.444-28.444 28.444s-28.444-12.735-28.444-28.444v0-85.333c0-31.419-25.47-56.889-56.889-56.889s-56.889 25.47-56.889 56.889v0 85.333c0 15.709-12.735 28.444-28.444 28.444s-28.444-12.735-28.444-28.444v0-85.333c0-31.419-25.47-56.889-56.889-56.889s-56.889 25.47-56.889 56.889v0 85.333c0 15.709-12.735 28.444-28.444 28.444s-28.444-12.735-28.444-28.444v0-85.333c0-31.419-25.47-56.889-56.889-56.889s-56.889 25.47-56.889 56.889v0 85.333c0 15.709-12.735 28.444-28.444 28.444s-28.444-12.735-28.444-28.444v0-85.333c0-31.419-25.47-56.889-56.889-56.889s-56.889 25.47-56.889 56.889v0zM141.084 138.524c-15.582 0.312-28.132 12.862-28.444 28.415v313.487h4.551c33.949 0.044 64.408 14.951 85.226 38.56l0.107 0.124c20.95-23.673 51.408-38.521 85.333-38.521s64.383 14.848 85.229 38.401l0.104 0.12c20.95-23.673 51.408-38.521 85.333-38.521s64.383 14.848 85.229 38.401l0.104 0.12c20.95-23.673 51.408-38.521 85.333-38.521s64.383 14.848 85.229 38.401l0.104 0.12c20.925-23.734 51.384-38.64 85.325-38.684h0.008v-32.427l-14.791 15.36c-5.022 5.597-12.278 9.103-20.353 9.103-0.044 0-0.089 0-0.133 0h0.007c-8.276-0.086-15.724-3.557-21.039-9.092l-0.010-0.010-56.889-60.302h-82.489c-0.009 0-0.020 0-0.031 0-8.177 0-15.594-3.255-21.025-8.54l0.007 0.007c-5.274-5.254-8.538-12.524-8.538-20.555 0-0.174 0.002-0.347 0.005-0.52v0.026l2.844-82.489-60.302-56.889c-5.597-5.022-9.103-12.278-9.103-20.353 0-0.044 0-0.089 0-0.133v0.007c0.086-8.276 3.557-15.724 9.092-21.039l0.010-0.010 60.302-56.889zM902.827 172.658c-5.622-5.303-9.122-12.804-9.122-21.121 0-0.375 0.007-0.748 0.021-1.119l-0.002 0.054v-64.853h-65.422c-8.448-0.125-16.065-3.578-21.619-9.104l0.001 0.001-44.373-47.787-44.373 47.787c-5.325 5.545-12.773 9.016-21.033 9.102h-64.869v64.853c0 0.037 0 0.080 0 0.124 0 8.609-3.477 16.407-9.104 22.064l0.001-0.001-47.787 44.373 47.787 44.373c5.524 5.553 8.978 13.17 9.102 21.594v65.446h64.853c0.177-0.004 0.385-0.006 0.593-0.006 8.463 0 16.111 3.487 21.587 9.102l0.006 0.006 44.373 47.787 44.373-47.787c5.302-5.613 12.797-9.107 21.107-9.107 0.18 0 0.359 0.002 0.538 0.005h65.395v-65.422c-0.003-0.152-0.004-0.331-0.004-0.511 0-8.31 3.494-15.804 9.093-21.094l47.801-44.386zM764.587 309.191c-47.128 0-85.333-38.205-85.333-85.333s38.205-85.333 85.333-85.333c47.128 0 85.333 38.205 85.333 85.333v0c0 47.128-38.205 85.333-85.333 85.333v0zM764.587 195.413c-15.709 0-28.444 12.735-28.444 28.444v0c0 15.709 12.735 28.444 28.444 28.444v0c15.709 0 28.444-12.735 28.444-28.444v0c-0.312-15.582-12.862-28.132-28.415-28.444h-0.029z" />
<glyph unicode="&#xe928;" glyph-name="wtkm-icon-41" d="M654.222 618.667h-28.444v85.333c0 47.128-38.205 85.333-85.333 85.333v0h-56.889c-1.624 0.384-3.488 0.604-5.404 0.604s-3.781-0.22-5.57-0.637l0.165 0.032-248.604-101.262c-28.927-11.481-49.755-37.622-53.438-69.007l-0.038-0.398h-28.444c-47.128 0-85.333-38.205-85.333-85.333v0-56.889c0-47.128 38.205-85.333 85.333-85.333v0h28.444c2.237-18.929 10.498-35.604 22.782-48.383l-0.026 0.028 91.022-273.636c3.7-11.349 14.188-19.406 26.558-19.406 0.664 0 1.322 0.023 1.975 0.069l-0.088-0.005h113.778c0.043 0 0.095 0 0.146 0 8.938 0 16.893 4.206 21.994 10.747l0.047 0.062c3.976 4.924 6.383 11.259 6.383 18.156 0 2.235-0.253 4.411-0.731 6.502l0.038-0.195-40.391 160.996 56.889-23.324c1.624-0.384 3.488-0.604 5.404-0.604s3.781 0.22 5.57 0.637l-0.165-0.032h56.889c0.517-0.011 1.126-0.018 1.737-0.018 46.334 0 84.044 36.929 85.301 82.959l0.003 0.116v85.333h28.444c47.128 0 85.333 38.205 85.333 85.333v0 56.889c0 47.128-38.205 85.333-85.333 85.333v0zM113.778 476.444v56.889c0 15.709 12.735 28.444 28.444 28.444v0h28.444v-113.778h-28.444c-15.709 0-28.444 12.735-28.444 28.444v0zM390.258 106.667h-56.889l-65.991 197.973 81.92-32.427zM568.889 305.778c0-15.709-12.735-28.444-28.444-28.444v0h-51.2l-244.053 97.28c-10.438 4.369-17.639 14.5-17.639 26.312 0 0.15 0.001 0.299 0.003 0.448v-0.023 207.076c-0.002 0.127-0.003 0.276-0.003 0.426 0 11.812 7.2 21.943 17.451 26.242l0.187 0.070 244.053 97.28h51.2c15.709 0 28.444-12.735 28.444-28.444v0-398.222zM682.667 476.444c0-15.709-12.735-28.444-28.444-28.444v0h-28.444v113.778h28.444c15.709 0 28.444-12.735 28.444-28.444v0zM711.111 277.333c-15.709 0-28.444-12.735-28.444-28.444v0-113.778c0-15.709 12.735-28.444 28.444-28.444s28.444 12.735 28.444 28.444v0 113.778c0 15.709-12.735 28.444-28.444 28.444v0zM824.889 391.111c-15.709 0-28.444-12.735-28.444-28.444v0-227.556c0-15.709 12.735-28.444 28.444-28.444s28.444 12.735 28.444 28.444v0 227.556c0 15.709-12.735 28.444-28.444 28.444v0zM938.667 504.889c-15.709 0-28.444-12.735-28.444-28.444v0-341.333c0-15.709 12.735-28.444 28.444-28.444s28.444 12.735 28.444 28.444v0 341.333c0 15.709-12.735 28.444-28.444 28.444v0z" />
<glyph unicode="&#xe929;" glyph-name="wtkm-icon-42" d="M197.404 273.351c0-15.709 12.735-28.444 28.444-28.444v0h375.467c15.582 0.312 28.132 12.862 28.444 28.415v0.029c0 15.709-12.735 28.444-28.444 28.444v0h-373.76c-0.51 0.033-1.106 0.051-1.707 0.051-15.709 0-28.444-12.735-28.444-28.444 0-0.018 0-0.036 0-0.054v0.003zM881.778 874.667h-113.778c-47.128 0-85.333-38.205-85.333-85.333v0-113.778c0-47.128 38.205-85.333 85.333-85.333v0h113.778c47.128 0 85.333 38.205 85.333 85.333v0 113.778c0 47.128-38.205 85.333-85.333 85.333v0zM910.222 675.556c0-15.709-12.735-28.444-28.444-28.444v0h-113.778c-15.709 0-28.444 12.735-28.444 28.444v0 113.778c0 15.709 12.735 28.444 28.444 28.444v0h113.778c15.709 0 28.444-12.735 28.444-28.444v0zM881.778 533.333h-113.778c-47.128 0-85.333-38.205-85.333-85.333v0-49.493l-54.044 215.609c-2.947 12.476-13.988 21.618-27.164 21.618-0.050 0-0.1 0-0.15 0h-56.881v13.084c0 62.838-50.94 113.778-113.778 113.778v0h-38.116c-62.838 0-113.778-50.94-113.778-113.778v0-13.084h-51.2c-13.321-0.085-24.505-9.134-27.829-21.415l-0.047-0.203-85.902-336.782c-0.264-1.025-0.416-2.201-0.416-3.413s0.152-2.388 0.437-3.512l-0.021 0.098v-83.058c0-62.838 50.94-113.778 113.778-113.778v0h375.467c62.838 0 113.778 50.94 113.778 113.778v0 81.92c15.039-12.739 34.661-20.484 56.091-20.484 0.281 0 0.561 0.001 0.841 0.004h113.735c44.616 3.071 79.645 40.017 79.645 85.144 0 0.067 0 0.133 0 0.2v-0.010 113.778c0 47.128-38.205 85.333-85.333 85.333v0zM337.351 647.111c0 31.419 25.47 56.889 56.889 56.889v0h41.529c31.419 0 56.889-25.47 56.889-56.889v0-11.378h-155.307zM655.929 188.587c0-31.419-25.47-56.889-56.889-56.889v0h-371.484c-31.419 0-56.889 25.47-56.889 56.889v0 79.644l77.369 310.613h32.427v-56.889c0.312-15.582 12.862-28.132 28.415-28.444h0.029c15.709 0 28.444 12.735 28.444 28.444v0 56.889h151.893v-56.889c0-15.709 12.735-28.444 28.444-28.444s28.444 12.735 28.444 28.444v0 56.889h32.996l76.8-308.907zM910.222 334.222c0-15.709-12.735-28.444-28.444-28.444v0h-113.778c-15.709 0-28.444 12.735-28.444 28.444v0 113.778c0 15.709 12.735 28.444 28.444 28.444v0h113.778c15.709 0 28.444-12.735 28.444-28.444v0z" />
<glyph unicode="&#xe92a;" glyph-name="wtkm-icon-43" d="M796.444 391.111c-52.052-0.451-98.482-24.135-129.489-61.173l-0.218-0.267-126.293 72.818v102.4c81.235 14.107 142.222 84.071 142.222 168.28 0 94.257-76.41 170.667-170.667 170.667s-170.667-76.41-170.667-170.667c0-84.209 60.988-154.173 141.203-168.133l1.019-0.147v-102.4l-126.293-72.818c-31.224 37.305-77.655 60.989-129.63 61.439l-0.077 0.001c-94.257 0-170.667-76.41-170.667-170.667s76.41-170.667 170.667-170.667c94.257 0 170.667 76.41 170.667 170.667v0c-0.222 21.729-4.377 42.423-11.785 61.493l0.407-1.191 125.156 72.249 125.156-72.249c-7.001-17.879-11.156-38.573-11.377-60.21l-0.001-0.092c0-94.257 76.41-170.667 170.667-170.667s170.667 76.41 170.667 170.667c0 94.257-76.41 170.667-170.667 170.667v0zM227.556 106.667c-62.838 0-113.778 50.94-113.778 113.778s50.94 113.778 113.778 113.778c62.838 0 113.778-50.94 113.778-113.778v0c0-62.838-50.94-113.778-113.778-113.778v0zM398.222 675.556c0 62.838 50.94 113.778 113.778 113.778s113.778-50.94 113.778-113.778c0-62.838-50.94-113.778-113.778-113.778v0c-62.838 0-113.778 50.94-113.778 113.778v0zM796.444 106.667c-62.838 0-113.778 50.94-113.778 113.778s50.94 113.778 113.778 113.778c62.838 0 113.778-50.94 113.778-113.778v0c0-62.838-50.94-113.778-113.778-113.778v0z" />
<glyph unicode="&#xe92b;" glyph-name="wtkm-icon-44" d="M728.747 415.573h-22.187c19.966 32.447 31.968 71.664 32.426 113.651l0.001 0.127v113.778c0 125.675-101.88 227.556-227.556 227.556s-227.556-101.88-227.556-227.556v0-113.778c0.644-42.175 12.839-81.373 33.548-114.733l-0.552 0.955h-22.187c-133.387-10.082-237.796-120.789-237.796-255.881 0-0.042 0-0.083 0-0.125v0.006c0-0.001 0-0.003 0-0.005 0-75.948 61.245-137.591 137.041-138.235h635.51c0 0 0.001 0 0.001 0 76.034 0 137.671 61.637 137.671 137.671 0 0.2 0 0.4-0.001 0.6v-0.031c0 0.023 0 0.050 0 0.078 0 135.293-104.718 246.128-237.523 255.873l-0.841 0.050zM341.333 647.111c0 94.257 76.41 170.667 170.667 170.667s170.667-76.41 170.667-170.667v0-113.778c0-94.257-76.41-170.667-170.667-170.667s-170.667 76.41-170.667 170.667v0zM886.898 102.116c-14.466-14.75-34.604-23.893-56.878-23.893-0.004 0-0.008 0-0.012 0h-636.017c-44.437 0.641-80.213 36.814-80.213 81.343 0 0.003 0 0.006 0 0.008v0c-0.006 0.582-0.010 1.27-0.010 1.958 0 54.2 21.718 103.328 56.927 139.155l-0.028-0.029c33.032 32.308 77.198 53.352 126.217 56.852l0.645 0.037 63.716 3.413c39.504-35.254 91.903-56.799 149.333-56.799s109.829 21.545 149.554 56.992l-0.221-0.194 63.716-3.413c103.816-7.587 185.334-93.062 186.594-197.849l0.001-0.125c0-0.101 0.001-0.221 0.001-0.341 0-22.349-9.14-42.562-23.885-57.108l-0.009-0.009z" />
<glyph unicode="&#xe92c;" glyph-name="wtkm-icon-45" d="M256 846.222h512c0.853 0.018 1.859 0.029 2.868 0.029 68.489 0 125.67-48.411 139.192-112.881l0.162-0.926c20.014-1.888 37.74-10.428 51.231-23.354l-0.031 0.029 40.391-40.391c13.831-15.114 22.305-35.33 22.305-57.525 0-1.577-0.043-3.144-0.127-4.7l0.009 0.217c-0.154-23.533-9.684-44.81-25.038-60.309l-88.74-88.74v-151.893c0-78.547-63.675-142.222-142.222-142.222v0h-446.578l-163.271-109.227c-4.555-2.754-10.034-4.43-15.895-4.551l-0.034-0.001c-4.998 0.049-9.692 1.306-13.817 3.492l0.164-0.079c-8.82 5.029-14.693 14.333-14.791 25.017v625.792c0 78.547 63.675 142.222 142.222 142.222v0zM967.111 606.72c0.002 0.12 0.003 0.262 0.003 0.404 0 7.881-3.27 14.998-8.528 20.068l-39.83 39.83c-5.156 5.197-12.3 8.414-20.196 8.414s-15.040-3.217-20.194-8.412l-261.122-261.122-13.653-93.867 93.867 13.653 260.551 260.551c5.594 4.925 9.105 12.102 9.105 20.1 0 0.134-0.001 0.267-0.003 0.401v-0.020zM170.667 131.129l126.293 84.764c4.532 2.829 10.030 4.519 15.92 4.551h455.12c47.128 0 85.333 38.205 85.333 85.333v0 95.004l-122.311-123.449c-4.079-4.44-9.577-7.518-15.773-8.513l-0.156-0.021-140.516-19.911h-5.689c-0.085-0.001-0.185-0.001-0.285-0.001-7.815 0-14.923 3.031-20.212 7.981l0.017-0.015c-5.096 5.306-8.234 12.526-8.234 20.478 0 1.405 0.098 2.787 0.287 4.14l-0.018-0.156 19.911 140.516c0.604 6.993 3.759 13.151 8.519 17.622l0.014 0.013 267.378 267.947c4.92 3.547 10.551 6.612 16.553 8.928l0.513 0.174c-6.57 41.482-42.076 72.819-84.9 72.819-0.152 0-0.305 0-0.457-0.001h-511.977c-47.128 0-85.333-38.205-85.333-85.333v0zM312.889 675.556h341.333c15.709 0 28.444-12.735 28.444-28.444s-12.735-28.444-28.444-28.444v0h-341.333c-15.709 0-28.444 12.735-28.444 28.444s12.735 28.444 28.444 28.444v0zM312.889 561.778h113.778c15.709 0 28.444-12.735 28.444-28.444s-12.735-28.444-28.444-28.444v0h-113.778c-15.709 0-28.444 12.735-28.444 28.444s12.735 28.444 28.444 28.444v0z" />
<glyph unicode="&#xe92d;" glyph-name="wtkm-icon-46" d="M918.187 501.476l-93.298-93.867-36.978 36.978c-5.168 5.168-12.309 8.365-20.196 8.365-15.774 0-28.561-12.787-28.561-28.561 0-7.887 3.197-15.027 8.365-20.196l56.889-56.889c5.109-4.934 12.074-7.974 19.749-7.974 0.257 0 0.513 0.003 0.768 0.010l-0.038-0.001c0.256-0.009 0.557-0.014 0.859-0.014 7.456 0 14.2 3.052 19.049 7.975l113.781 113.781c5.197 5.156 8.414 12.3 8.414 20.196s-3.217 15.040-8.412 20.194l-0.002 0.002c-5.217 5.062-12.342 8.183-20.196 8.183s-14.979-3.121-20.203-8.19l0.007 0.007zM597.333 789.333h-398.222c-47.128 0-85.333-38.205-85.333-85.333s38.205-85.333 85.333-85.333v0h398.222c47.128 0 85.333 38.205 85.333 85.333s-38.205 85.333-85.333 85.333v0zM597.333 675.556h-398.222c-15.709 0-28.444 12.735-28.444 28.444s12.735 28.444 28.444 28.444v0h398.222c15.709 0 28.444-12.735 28.444-28.444s-12.735-28.444-28.444-28.444v0zM597.333 504.889h-398.222c-47.128 0-85.333-38.205-85.333-85.333s38.205-85.333 85.333-85.333v0h398.222c47.128 0 85.333 38.205 85.333 85.333s-38.205 85.333-85.333 85.333v0zM597.333 391.111h-398.222c-15.709 0-28.444 12.735-28.444 28.444s12.735 28.444 28.444 28.444v0h398.222c15.709 0 28.444-12.735 28.444-28.444s-12.735-28.444-28.444-28.444v0zM597.333 220.444h-398.222c-47.128 0-85.333-38.205-85.333-85.333s38.205-85.333 85.333-85.333v0h398.222c47.128 0 85.333 38.205 85.333 85.333s-38.205 85.333-85.333 85.333v0zM597.333 106.667h-398.222c-15.709 0-28.444 12.735-28.444 28.444s12.735 28.444 28.444 28.444v0h398.222c15.709 0 28.444-12.735 28.444-28.444s-12.735-28.444-28.444-28.444v0z" />
<glyph unicode="&#xe92e;" glyph-name="wtkm-icon-47" d="M335.076 561.778h341.333c15.709 0 28.444 12.735 28.444 28.444s-12.735 28.444-28.444 28.444v0h-341.333c-15.709 0-28.444-12.735-28.444-28.444s12.735-28.444 28.444-28.444v0zM335.076 448h341.333c15.709 0 28.444 12.735 28.444 28.444s-12.735 28.444-28.444 28.444v0h-341.333c-15.709 0-28.444-12.735-28.444-28.444s12.735-28.444 28.444-28.444v0zM910.222 418.418c-0.84 22.332-10.253 42.314-25.022 56.879l-0.010 0.009-18.204 18.204c-12.657 12.301-29.42 20.437-48.041 22.163l-0.314 0.024v188.302c0 47.128-38.205 85.333-85.333 85.333v0h-455.111c-47.128 0-85.333-38.205-85.333-85.333v0-455.111c0-47.128 38.205-85.333 85.333-85.333h176.924v-68.836c0-15.709 12.735-28.444 28.444-28.444v0h97.849c8.004 0.020 15.242 3.278 20.479 8.533l88.748 88.748h42.667c47.128 0 85.333 38.205 85.333 85.333v0 42.667l66.56 67.129c15.418 15.233 24.982 36.362 25.031 59.724v0.009zM249.742 247.751v455.111c0 15.709 12.735 28.444 28.444 28.444v0h455.111c15.709 0 28.444-12.735 28.444-28.444v0-197.973c-5.432-2.718-10.109-5.941-14.275-9.718l0.053 0.047-105.813-104.107h-306.631c-15.709 0-28.444-12.735-28.444-28.444s12.735-28.444 28.444-28.444v0h249.742l-113.778-113.778h-192.853c-15.709 0-28.444 12.735-28.444 28.444v0zM845.369 398.507v0l-184.889-184.889-91.591-90.453h-56.889v56.889l275.342 275.911c5.148 4.74 12.048 7.646 19.627 7.646s14.479-2.906 19.647-7.664l-0.020 0.019 18.773-18.773c4.922-4.938 7.965-11.751 7.965-19.275 0-0.024 0-0.047 0-0.071v0.004c-0.226-7.507-3.215-14.274-7.98-19.358l0.015 0.016z" />
<glyph unicode="&#xe92f;" glyph-name="wtkm-icon-48" d="M796.444 419.556c-4.553 0.061-8.848 1.103-12.703 2.924l0.187-0.079-113.778 56.889c-9.539 4.741-15.98 14.418-15.98 25.6 0 15.738 12.758 28.496 28.496 28.496 4.556 0 8.862-1.069 12.681-2.97l-0.166 0.075 88.747-44.373 43.804 88.178c4.741 9.539 14.418 15.98 25.6 15.98 15.738 0 28.496-12.758 28.496-28.496 0-4.556-1.069-8.862-2.97-12.681l0.075 0.166-56.889-113.778c-4.736-9.51-14.39-15.929-25.543-15.929-0.020 0-0.040 0-0.060 0h0.003zM170.667 305.778c-4.553 0.061-8.848 1.103-12.703 2.924l0.187-0.079c-9.46 4.91-15.811 14.631-15.811 25.836 0 4.458 1.006 8.681 2.802 12.455l-0.075-0.176 56.889 113.778c4.91 9.46 14.631 15.811 25.836 15.811 4.458 0 8.681-1.006 12.455-2.802l-0.176 0.075 113.778-56.889c9.539-4.741 15.98-14.418 15.98-25.6 0-15.738-12.758-28.496-28.496-28.496-4.556 0-8.862 1.069-12.681 2.97l0.166-0.075-88.747 44.373-43.804-88.178c-4.736-9.51-14.39-15.929-25.543-15.929-0.020 0-0.040 0-0.060 0h0.003zM796.444 419.556c-15.709 0-28.444 12.735-28.444 28.444v0c-0.64 140.585-114.754 254.304-255.429 254.304-99.167 0-185.134-56.511-227.457-139.086l-0.67-1.44c-5.065-8.313-14.080-13.779-24.372-13.779-15.709 0-28.444 12.735-28.444 28.444 0 3.946 0.804 7.705 2.256 11.121l-0.070-0.186c52.63 102.535 157.644 171.475 278.759 171.475 171.974 0 311.484-138.996 312.316-310.774v-0.079c0-15.709-12.735-28.444-28.444-28.444v0zM512 135.111c-172.674 0.323-312.566 140.215-312.889 312.858v0.031c0 15.709 12.735 28.444 28.444 28.444s28.444-12.735 28.444-28.444v0c0.64-140.585 114.754-254.304 255.429-254.304 99.167 0 185.134 56.511 227.457 139.086l0.67 1.44c5.065 8.313 14.080 13.779 24.372 13.779 15.709 0 28.444-12.735 28.444-28.444 0-3.946-0.804-7.705-2.256-11.121l0.070 0.186c-51.722-103.455-156.773-173.297-278.157-173.511h-0.029z" />
<glyph unicode="&#xe930;" glyph-name="wtkm-icon-49" d="M910.222 460.516c-39.885 71.569-98.122 128.709-168.434 166.168l-2.233 1.086 50.631 56.889c3.094 4.486 4.942 10.038 4.942 16.022 0 15.709-12.735 28.444-28.444 28.444-7.126 0-13.639-2.62-18.63-6.95l0.035 0.030-65.422-70.542c-42.147 15.141-90.778 23.894-141.453 23.894-0.271 0-0.541 0-0.812-0.001h0.042c-1.322 0.015-2.884 0.024-4.447 0.024-155.518 0-290.96-85.955-361.41-212.95l-1.076-2.114c-1.871-3.645-2.968-7.952-2.968-12.516s1.097-8.871 3.041-12.673l-0.073 0.158c39.885-71.569 98.122-128.709 168.434-166.168l2.233-1.086-50.631-56.889c-5.312-4.994-8.62-12.066-8.62-19.911s3.308-14.917 8.606-19.898l0.014-0.013c4.764-4.918 11.428-7.97 18.805-7.97 0.189 0 0.378 0.002 0.566 0.006h-0.028c0.059 0 0.13-0.001 0.2-0.001 8.34 0 15.808 3.739 20.816 9.633l0.032 0.039 64.284 71.111c42.147-15.141 90.778-23.894 141.453-23.894 0.271 0 0.541 0 0.812 0.001h-0.042c2.163-0.041 4.714-0.064 7.27-0.064 155.534 0 290.988 85.973 361.432 212.99l1.076 2.114c1.871 3.645 2.968 7.952 2.968 12.516s-1.097 8.871-3.041 12.673l0.073-0.158zM231.538 448c63.753 103.061 176.158 170.696 304.36 170.696 1.599 0 3.195-0.011 4.789-0.031l-0.242 0.003c35.963-0.322 70.587-5.494 103.427-14.891l-2.734 0.669-29.582-34.133c-20.273 12.469-44.824 19.871-71.1 19.911h-0.011c-78.547 0-142.222-63.675-142.222-142.222v0c0.039-32.074 10.951-61.592 29.246-85.075l-0.233 0.31-44.942-50.062c-62.708 30.748-113.84 76.769-149.873 133.344l-0.883 1.483zM625.778 448c0-47.128-38.205-85.333-85.333-85.333v0c-0.035 0-0.076 0-0.117 0-11.447 0-22.357 2.3-32.292 6.463l0.551-0.205 106.382 120.036c6.726-11.794 10.724-25.901 10.809-40.935v-0.025zM455.111 448c0 47.128 38.205 85.333 85.333 85.333v0c0.035 0 0.076 0 0.117 0 11.447 0 22.357-2.3 32.292-6.463l-0.551 0.205-106.382-120.036c-6.726 11.794-10.724 25.901-10.809 40.935v0.025zM540.444 277.333c-35.963 0.322-70.587 5.494-103.427 14.891l2.734-0.669 29.582 34.133c20.273-12.469 44.824-19.871 71.1-19.911h0.011c78.547 0 142.222 63.675 142.222 142.222v0c-0.039 32.074-10.951 61.592-29.246 85.075l0.233-0.31 44.942 50.062c62.708-30.748 113.84-76.769 149.873-133.344l0.883-1.483c-63.753-103.061-176.158-170.696-304.36-170.696-1.599 0-3.195 0.011-4.789 0.031l0.242-0.003z" />
<glyph unicode="&#xe931;" glyph-name="wtkm-icon-50" d="M910.222 460.516c-71.52 129.131-206.974 215.104-362.508 215.104-2.556 0-5.107-0.023-7.652-0.069l0.382 0.005c-1.322 0.015-2.884 0.024-4.447 0.024-155.518 0-290.96-85.955-361.41-212.95l-1.076-2.114c-1.871-3.645-2.968-7.952-2.968-12.516s1.097-8.871 3.041-12.673l-0.073 0.158c71.525-129.108 206.968-215.064 362.486-215.064 1.564 0 3.125 0.009 4.684 0.026l-0.237-0.002c2.163-0.041 4.714-0.064 7.27-0.064 155.534 0 290.988 85.973 361.432 212.99l1.076 2.114c1.871 3.645 2.968 7.952 2.968 12.516s-1.097 8.871-3.041 12.673l0.073-0.158zM540.444 277.333c-1.352-0.018-2.948-0.029-4.547-0.029-128.202 0-240.606 67.634-303.479 169.168l-0.881 1.527c63.753 103.061 176.158 170.696 304.36 170.696 1.599 0 3.195-0.011 4.789-0.031l-0.242 0.003c1.352 0.018 2.948 0.029 4.547 0.029 128.202 0 240.606-67.634 303.479-169.168l0.881-1.527c-63.753-103.061-176.158-170.696-304.36-170.696-1.599 0-3.195 0.011-4.789 0.031l0.242-0.003zM540.444 590.222c-78.547 0-142.222-63.675-142.222-142.222s63.675-142.222 142.222-142.222c78.547 0 142.222 63.675 142.222 142.222v0c0 78.547-63.675 142.222-142.222 142.222v0zM540.444 362.667c-47.128 0-85.333 38.205-85.333 85.333s38.205 85.333 85.333 85.333c47.128 0 85.333-38.205 85.333-85.333v0c0-47.128-38.205-85.333-85.333-85.333v0z" />
<glyph unicode="&#xe932;" glyph-name="wtkm-icon-51" d="M512 903.111c-251.351 0-455.111-203.76-455.111-455.111s203.76-455.111 455.111-455.111c251.351 0 455.111 203.76 455.111 455.111v0c0 251.351-203.76 455.111-455.111 455.111v0zM910.222 476.444h-142.222c-10.826 142.642-74.139 268.71-170.442 360.463l-0.225 0.213c171.355-38.073 299.724-182.677 312.811-359.36l0.078-1.316zM483.556 812.089v-335.644h-170.667c11.837 134.583 75.24 252.418 170.070 335.135l0.596 0.509zM483.556 419.556v-335.644c-95.427 83.226-158.83 201.061-170.531 333.742l-0.135 1.903zM540.444 83.911v335.644h170.667c-11.837-134.583-75.24-252.418-170.070-335.135l-0.596-0.509zM540.444 476.444v335.644c95.427-83.226 158.83-201.061 170.531-333.742l0.135-1.903zM426.667 837.12c-96.528-91.965-159.841-218.033-170.552-358.805l-0.114-1.87h-142.222c13.233 178.148 141.862 322.82 310.814 360.185l2.644 0.491zM113.778 419.556h142.222c10.826-142.642 74.139-268.71 170.442-360.463l0.225-0.213c-171.355 38.073-299.724 182.677-312.811 359.36l-0.078 1.316zM595.058 58.88c96.528 91.965 159.841 218.033 170.552 358.805l0.114 1.87h144.498c-13.233-178.148-141.862-322.82-310.814-360.185l-2.644-0.491z" />
<glyph unicode="&#xe933;" glyph-name="wtkm-icon-52" d="M768 220.444h-43.236c44.517 53.656 71.53 123.229 71.53 199.111 0 172.804-140.085 312.889-312.889 312.889s-312.889-140.085-312.889-312.889c0-172.804 140.085-312.889 312.889-312.889 0.053 0 0.106 0 0.158 0h-0.008c15.709 0 28.444 12.735 28.444 28.444s-12.735 28.444-28.444 28.444v0c-0.196-0.001-0.428-0.001-0.66-0.001-141.699 0-256.569 114.87-256.569 256.569s114.87 256.569 256.569 256.569c141.699 0 256.569-114.87 256.569-256.569 0-61.191-21.421-117.378-57.174-161.473l0.375 0.478v46.649c0 15.709-12.735 28.444-28.444 28.444s-28.444-12.735-28.444-28.444v0-113.778s0 0 0-3.413 0-3.413 0-5.689c0.793-1.955 1.749-3.642 2.889-5.183l-0.045 0.063v-2.844l3.982-3.982h129.138c15.709 0 28.444 12.735 28.444 28.444s-12.735 28.444-28.444 28.444v0z" />
<glyph unicode="&#xe934;" glyph-name="wtkm-icon-53" d="M853.333 465.636c-4.351-10.478-14.502-17.713-26.343-17.713-0.74 0-1.473 0.028-2.198 0.084l0.096-0.006h-142.222v-312.889c0-15.709-12.735-28.444-28.444-28.444v0h-227.556c-15.709 0-28.444 12.735-28.444 28.444v0 312.889h-142.222c-0.629-0.050-1.362-0.078-2.102-0.078-11.841 0-21.992 7.235-26.273 17.525l-0.069 0.188c-1.506 3.242-2.384 7.036-2.384 11.036 0 7.778 3.321 14.781 8.623 19.667l0.019 0.017 284.444 284.444c4.994 5.312 12.066 8.62 19.911 8.62s14.917-3.308 19.898-8.606l0.013-0.014 284.444-284.444c7.352-4.844 12.137-13.063 12.137-22.399 0-2.975-0.486-5.837-1.383-8.51l0.055 0.189zM540.444 720.498l-215.609-215.609h101.831c15.709 0 28.444-12.735 28.444-28.444v0-312.889h170.667v312.889c0 15.709 12.735 28.444 28.444 28.444v0h101.831z" />
<glyph unicode="&#xe935;" glyph-name="wtkm-icon-54" d="M609.28 732.444h215.609c15.709 0 28.444 12.735 28.444 28.444s-12.735 28.444-28.444 28.444v0h-568.889c-15.709 0-28.444-12.735-28.444-28.444s12.735-28.444 28.444-28.444v0h215.609l-235.52-236.089c-5.257-4.896-8.535-11.858-8.535-19.585 0-0.115 0.001-0.229 0.002-0.343v0.017c0-15.709 12.735-28.444 28.444-28.444v0h142.222v-312.889c0-15.709 12.735-28.444 28.444-28.444v0h227.556c15.709 0 28.444 12.735 28.444 28.444v0 312.889h142.222c0.629-0.050 1.362-0.078 2.102-0.078 11.841 0 21.992 7.235 26.273 17.525l0.069 0.188c1.506 3.242 2.384 7.036 2.384 11.036 0 7.778-3.321 14.781-8.623 19.667l-0.019 0.017zM654.222 504.889c-15.709 0-28.444-12.735-28.444-28.444v0-312.889h-170.667v312.889c0 15.709-12.735 28.444-28.444 28.444v0h-101.831l215.609 215.609 215.609-215.609z" />
<glyph unicode="&#xe936;" glyph-name="wtkm-icon-55" d="M853.333 430.364c-4.351 10.478-14.502 17.713-26.343 17.713-0.74 0-1.473-0.028-2.198-0.084l0.096 0.006h-142.222v312.889c0 15.709-12.735 28.444-28.444 28.444v0h-227.556c-15.709 0-28.444-12.735-28.444-28.444v0-312.889h-142.222c-0.629 0.050-1.362 0.078-2.102 0.078-11.841 0-21.992-7.235-26.273-17.525l-0.069-0.188c-1.506-3.242-2.384-7.036-2.384-11.036 0-7.778 3.321-14.781 8.623-19.667l0.019-0.017 284.444-284.444c4.994-5.312 12.066-8.62 19.911-8.62s14.917 3.308 19.898 8.606l0.013 0.014 284.444 284.444c7.352 4.844 12.137 13.063 12.137 22.399 0 2.975-0.486 5.837-1.383 8.51l0.055-0.189zM540.444 175.502l-215.609 215.609h101.831c15.709 0 28.444 12.735 28.444 28.444v0 312.889h170.667v-312.889c0-15.709 12.735-28.444 28.444-28.444v0h101.831z" />
<glyph unicode="&#xe937;" glyph-name="wtkm-icon-56" d="M609.28 163.556h215.609c15.709 0 28.444-12.735 28.444-28.444s-12.735-28.444-28.444-28.444v0h-568.889c-15.709 0-28.444 12.735-28.444 28.444s12.735 28.444 28.444 28.444v0h215.609l-235.52 236.089c-5.257 4.896-8.535 11.858-8.535 19.585 0 0.115 0.001 0.229 0.002 0.343v-0.017c0 15.709 12.735 28.444 28.444 28.444v0h142.222v312.889c0 15.709 12.735 28.444 28.444 28.444v0h227.556c15.709 0 28.444-12.735 28.444-28.444v0-312.889h142.222c11.755-0.061 21.817-7.242 26.099-17.448l0.070-0.187c1.506-3.242 2.384-7.036 2.384-11.036 0-7.778-3.321-14.781-8.623-19.667l-0.019-0.017zM654.222 391.111c-15.709 0-28.444 12.735-28.444 28.444v0 312.889h-170.667v-312.889c0-15.709-12.735-28.444-28.444-28.444v0h-101.831l215.609-215.609 215.609 215.609z" />
<glyph unicode="&#xe938;" glyph-name="wtkm-icon-57" d="M512 872.391c-188.513 0-341.333-152.82-341.333-341.333v0c0-245.191 310.613-494.933 323.698-505.742 4.763-3.915 10.922-6.288 17.636-6.288s12.872 2.373 17.684 6.326l-0.049-0.039c13.084 10.809 323.698 260.551 323.698 505.742 0 188.513-152.82 341.333-341.333 341.333v0zM512 85.049c-64.853 56.889-284.444 259.413-284.444 446.009 0 157.094 127.35 284.444 284.444 284.444s284.444-127.35 284.444-284.444v0c0-186.596-219.591-390.258-284.444-446.009zM512 671.573c-0.169 0.001-0.369 0.001-0.569 0.001-77.605 0-140.516-62.911-140.516-140.516s62.911-140.516 140.516-140.516c77.604 0 140.515 62.91 140.516 140.514v0c0 0 0 0.001 0 0.001 0 77.405-62.587 140.191-139.916 140.514h-0.031zM512 448c-0.168-0.001-0.368-0.002-0.567-0.002-46.186 0-83.627 37.441-83.627 83.627s37.441 83.627 83.627 83.627c46.186 0 83.627-37.441 83.627-83.627 0-0.199-0.001-0.398-0.002-0.597v0.030c0-45.872-37.186-83.058-83.058-83.058v0z" />
</font>
</defs>
</svg>
